<svg width="15" height="62" viewBox="0 0 15 62" fill="none" xmlns="http://www.w3.org/2000/svg">
<path fill-rule="evenodd" clip-rule="evenodd" d="M11.363 0.0723732C11.7445 0.0661192 12.276 0.109897 12.5512 0.166182C12.8264 0.216214 13.2642 0.347547 13.5206 0.453864C13.8645 0.597705 14.0834 0.747798 14.3398 0.997956C14.5837 1.24186 14.7213 1.44199 14.7964 1.66087C14.8589 1.861 14.9089 2.24249 14.9215 2.72405C14.9402 3.24938 14.9215 3.58084 14.8527 3.81849C14.8026 4.0061 14.6901 4.28753 14.5963 4.44388C14.5087 4.60023 14.3586 4.81286 14.2648 4.91293C14.1772 5.01299 13.8833 5.21937 13.6081 5.36321C13.3392 5.5008 12.8577 5.70092 12.5512 5.79473C12.0947 5.93857 11.8695 5.96984 11.363 5.9761C10.8189 5.9761 10.7 5.95733 10.4561 5.826C10.2998 5.7447 9.99335 5.48829 9.7682 5.26315C9.51805 5.00673 9.28665 4.69404 9.16157 4.44388C9.05525 4.21874 8.93018 3.9248 8.8864 3.78722C8.84262 3.64963 8.8051 3.22436 8.79884 2.15494L9.11779 1.50453C9.3617 1.00421 9.51805 0.785323 9.74319 0.578943C9.91205 0.428848 10.1872 0.253737 10.3623 0.191198C10.6 0.103642 10.8439 0.0723732 11.363 0.0723732ZM11.832 9.39075C12.4136 9.3845 12.7764 9.40952 12.989 9.47205C13.1641 9.52834 13.4268 9.67218 13.5769 9.80351C13.727 9.93485 13.9021 10.1412 13.9583 10.2601C14.0209 10.3789 14.1022 10.6478 14.1335 10.8542C14.171 11.0606 14.2335 12.2551 14.2773 13.5121C14.3336 15.2507 14.3336 16.1075 14.2773 17.1081C14.2398 17.8273 14.1772 18.8592 14.146 19.3908C14.1147 19.9224 14.0459 21.317 13.9896 22.4865C13.9396 23.656 13.8708 25.6948 13.8333 27.0206C13.7957 28.3465 13.7707 31.2545 13.7707 33.4935C13.7707 35.7261 13.7957 38.8218 13.8333 40.3728C13.8645 41.9175 13.9271 45.5636 13.9646 48.4717C14.0084 51.3797 14.0397 54.9132 14.0459 56.3204C14.0522 58.0777 14.0271 59.1034 13.9709 59.5724C13.9271 59.9476 13.8583 60.4417 13.8208 60.6669C13.7832 60.892 13.7207 61.1422 13.6769 61.2297C13.6331 61.3173 13.5143 61.4611 13.4017 61.5549C13.2954 61.655 13.089 61.7613 12.9452 61.7988C12.7951 61.8363 12.4637 61.8551 12.2072 61.8363C11.9196 61.8238 11.6194 61.755 11.4255 61.6737C11.2566 61.5987 11.019 61.4674 10.9127 61.3798C10.8001 61.2985 10.6375 61.1109 10.5499 60.9608C10.4624 60.8169 10.3498 60.5418 10.2935 60.3542C10.1997 60.054 10.1872 59.4911 10.1685 56.0077C10.1497 53.8063 10.1309 51.8926 10.1122 51.755C10.0934 51.6174 10.0434 51.4548 10.0059 51.386C9.92455 51.2734 9.9183 51.2734 9.70566 51.3797C9.58684 51.4423 9.26164 51.7237 8.99272 51.9989C8.7238 52.2803 8.33605 52.7056 8.14218 52.9432C7.94205 53.1809 7.61059 53.6499 7.3917 53.9751C7.17907 54.3003 6.77256 55.0508 6.48488 55.6324C6.1972 56.214 5.74066 57.2459 5.46549 57.9151C5.19032 58.5843 4.87762 59.316 4.77756 59.5411C4.67749 59.7663 4.57743 60.0227 4.55867 60.1165C4.53365 60.2166 4.40232 60.523 4.26473 60.8044C4.1334 61.0921 3.92077 61.4298 3.79569 61.5549C3.67686 61.6862 3.48299 61.8426 3.37667 61.8989C3.22032 61.9802 3.03271 62.0052 2.63871 61.9989C2.34477 61.9927 1.96953 61.9552 1.79442 61.9176C1.62557 61.8801 1.34414 61.7988 1.16903 61.7488C1.00017 61.6925 0.762523 61.5862 0.656206 61.5049C0.543635 61.4236 0.406048 61.2735 0.356016 61.1672C0.305985 61.0609 0.262207 60.8482 0.262207 60.6794C0.262207 60.5168 0.318493 60.1165 0.387286 59.7913C0.462333 59.4661 0.549889 59.0533 0.581159 58.8845C0.618682 58.7094 0.674968 58.4592 0.706238 58.3216C0.737507 58.184 0.787538 57.9714 0.818808 57.8526C0.850078 57.7338 0.943887 57.3648 1.03144 57.0396C1.12525 56.7144 1.30662 56.1202 1.4442 55.7262C1.57554 55.3322 1.77566 54.7944 1.87572 54.538C1.97579 54.2816 2.18217 53.8188 2.33226 53.5061C2.48236 53.1934 2.77004 52.6493 2.97016 52.2866C3.17654 51.9238 3.57054 51.3109 3.85197 50.9232C4.12714 50.5292 4.40232 50.1477 4.45235 50.0789C4.50238 50.0039 4.74003 49.7224 4.98394 49.4473C5.22159 49.1784 5.77193 48.6405 6.20346 48.2528C6.63498 47.865 7.3792 47.2209 7.86075 46.8144C8.3423 46.4079 8.79259 46.0201 8.86764 45.9451C8.94268 45.8763 9.17408 45.6449 9.38671 45.4385C9.65563 45.1758 9.80573 44.9694 9.88703 44.7506C9.99335 44.4691 10.0121 44.0626 10.0746 40.9356C10.1122 39.0094 10.1747 35.9262 10.206 34.0876C10.2373 32.2489 10.2873 30.1163 10.3623 27.9712L8.70503 27.94C7.46675 27.9212 6.92891 27.8837 6.57869 27.8086C6.32228 27.7461 5.84073 27.571 5.51552 27.4146C5.02771 27.177 4.83384 27.0394 4.43359 26.6329C4.15216 26.3452 3.7394 25.8199 3.4267 25.3446C3.13902 24.9068 2.76379 24.2689 2.58868 23.9249C2.41982 23.581 2.17592 23.0306 2.05709 22.7054C1.93201 22.3802 1.78817 21.9424 1.73188 21.736C1.68185 21.5297 1.5943 21.1607 1.54427 20.923C1.50049 20.6791 1.4317 20.1475 1.39417 19.7348C1.35039 19.2282 1.34414 18.7091 1.38792 18.14C1.41919 17.6772 1.48173 17.1144 1.51925 16.8892C1.55677 16.6641 1.62557 16.3014 1.68185 16.0762C1.73188 15.8511 1.86322 15.4321 1.96328 15.1381C2.0696 14.8442 2.22595 14.4627 2.30725 14.2938C2.3948 14.1187 2.61995 13.7435 2.80756 13.4496C3.01394 13.1369 3.4142 12.6616 3.78943 12.2863C4.1334 11.9424 4.63371 11.5171 4.89013 11.3545C5.14654 11.1856 5.66562 10.9042 6.04711 10.7228C6.4286 10.5415 7.02898 10.2976 7.3917 10.1788C7.75443 10.0599 8.31729 9.89107 8.6425 9.80351C8.9677 9.71596 9.46176 9.61589 9.73694 9.57212C10.0121 9.53459 10.4061 9.47831 10.6125 9.45329C10.8189 9.42202 11.3692 9.397 11.832 9.39075ZM7.76694 15.2945C7.44174 15.5071 6.94768 15.8823 6.67876 16.1137C6.40358 16.3514 5.99082 16.7829 5.75317 17.0769C5.51552 17.3708 5.22784 17.7898 5.11527 18.0149C5.0027 18.2401 4.87137 18.5778 4.82759 18.7654C4.78381 18.953 4.74629 19.2657 4.74629 19.4534C4.75254 19.641 4.78381 19.9224 4.82133 20.0787C4.86511 20.2351 4.95267 20.5165 5.02771 20.7041C5.10276 20.8918 5.26536 21.2295 5.39044 21.4546C5.52178 21.6798 5.76568 22.0237 5.92828 22.2176C6.09714 22.4177 6.4286 22.7304 6.6725 22.9243C6.9164 23.1119 7.33542 23.3808 7.61059 23.5184C7.88577 23.6497 8.32354 23.8311 8.57996 23.9187C8.83637 24 9.23037 24.1 9.45551 24.1376C9.68065 24.1751 9.93706 24.2063 10.0371 24.2063H10.206C10.206 15.0693 10.1872 14.0124 10.1309 14.0124C10.0872 14.0187 9.66814 14.2188 9.20535 14.4564C8.74256 14.7003 8.09215 15.0756 7.76694 15.2945Z" fill="#008080"/>
</svg>
