<svg width="49" height="65" viewBox="0 0 49 65" fill="none" xmlns="http://www.w3.org/2000/svg">
<circle cx="24.5" cy="24.5" r="16.5" fill="#FEFEFE"/>
<path d="M24.5 0C10.9433 0 0 10.8875 0 24.375C0 40.625 24.5 65 24.5 65C24.5 65 49 40.625 49 24.375C49 10.8875 38.0567 0 24.5 0ZM24.5 8.125C28.8319 8.125 32.9863 9.83705 36.0494 12.8845C39.1125 15.932 40.8333 20.0652 40.8333 24.375C40.8333 33.3937 33.565 40.625 24.5 40.625C20.1681 40.625 16.0137 38.913 12.9506 35.8655C9.8875 32.818 8.16667 28.6848 8.16667 24.375C8.16667 20.0652 9.8875 15.932 12.9506 12.8845C16.0137 9.83705 20.1681 8.125 24.5 8.125Z" fill="#583E7B"/>
<path d="M24.6664 19.667C23.5613 19.667 22.5015 20.106 21.7201 20.8874C20.9387 21.6688 20.4998 22.7285 20.4998 23.8336C20.4998 24.9386 20.9387 25.9984 21.7201 26.7798C22.5015 27.5612 23.5613 28.0002 24.6664 28.0002C25.7714 28.0002 26.8312 27.5612 27.6126 26.7798C28.394 25.9984 28.833 24.9386 28.833 23.8336C28.833 22.7285 28.394 21.6688 27.6126 20.8874C26.8312 20.106 25.7714 19.667 24.6664 19.667Z" fill="#583E7B"/>
<path fill-rule="evenodd" clip-rule="evenodd" d="M21.7154 13.0792C23.6814 12.9736 25.6516 12.9736 27.6175 13.0792C28.692 13.137 29.6508 13.7292 30.2086 14.6236L31.1208 16.0869C31.3875 16.5125 31.8375 16.8014 32.3541 16.8758C32.783 16.9358 33.2097 17.0014 33.6341 17.0725C35.2252 17.338 36.333 18.7313 36.333 20.3046V29.6667C36.333 30.5507 35.9818 31.3986 35.3567 32.0237C34.7316 32.6488 33.8837 33 32.9997 33H16.3333C15.4492 33 14.6014 32.6488 13.9763 32.0237C13.3512 31.3986 13 30.5507 13 29.6667V20.3046C13 18.7313 14.1078 17.338 15.6988 17.0725C16.1233 17.0014 16.5499 16.9358 16.9777 16.8747C17.2284 16.8411 17.4687 16.7531 17.6817 16.6169C17.8948 16.4806 18.0755 16.2993 18.211 16.0858L19.1243 14.6247C19.4004 14.1781 19.7801 13.8046 20.2311 13.5358C20.6821 13.2669 21.1912 13.1096 21.7154 13.0792ZM18.8332 23.8335C18.8332 22.2864 19.4478 20.8027 20.5418 19.7087C21.6357 18.6148 23.1194 18.0002 24.6665 18.0002C26.2136 18.0002 27.6973 18.6148 28.7912 19.7087C29.8851 20.8027 30.4997 22.2864 30.4997 23.8335C30.4997 25.3805 29.8851 26.8642 28.7912 27.9582C27.6973 29.0521 26.2136 29.6667 24.6665 29.6667C23.1194 29.6667 21.6357 29.0521 20.5418 27.9582C19.4478 26.8642 18.8332 25.3805 18.8332 23.8335ZM32.1664 22.1668C32.3874 22.1668 32.5993 22.079 32.7556 21.9228C32.9119 21.7665 32.9997 21.5545 32.9997 21.3335C32.9997 21.1125 32.9119 20.9005 32.7556 20.7443C32.5993 20.588 32.3874 20.5002 32.1664 20.5002C31.9453 20.5002 31.7334 20.588 31.5771 20.7443C31.4208 20.9005 31.333 21.1125 31.333 21.3335C31.333 21.5545 31.4208 21.7665 31.5771 21.9228C31.7334 22.079 31.9453 22.1668 32.1664 22.1668Z" fill="#583E7B"/>
</svg>
