<svg width="49" height="65" viewBox="0 0 49 65" fill="none" xmlns="http://www.w3.org/2000/svg">
<circle cx="24.5" cy="24.5" r="16.5" fill="#FEFEFE"/>
<path d="M24.5 0C10.9433 0 0 10.8875 0 24.375C0 40.625 24.5 65 24.5 65C24.5 65 49 40.625 49 24.375C49 10.8875 38.0567 0 24.5 0ZM24.5 8.125C28.8319 8.125 32.9863 9.83705 36.0494 12.8845C39.1125 15.932 40.8333 20.0652 40.8333 24.375C40.8333 33.3937 33.565 40.625 24.5 40.625C20.1681 40.625 16.0137 38.913 12.9506 35.8655C9.8875 32.818 8.16667 28.6848 8.16667 24.375C8.16667 20.0652 9.8875 15.932 12.9506 12.8845C16.0137 9.83705 20.1681 8.125 24.5 8.125Z" fill="#EA6D26"/>
<path d="M29.7611 22.4972C30.2539 22.4986 30.742 22.4021 31.1973 22.2135C31.6525 22.0249 32.0658 21.7479 32.4133 21.3984L36.0227 17.7914C36.3081 17.5059 36.3344 17.0414 36.0625 16.7419C35.9943 16.6666 35.9114 16.606 35.819 16.5638C35.7267 16.5215 35.6267 16.4984 35.5251 16.496C35.4235 16.4935 35.3225 16.5117 35.2282 16.5495C35.1339 16.5872 35.0482 16.6438 34.9764 16.7156L31.7594 19.9303C31.6514 20.0382 31.5049 20.0988 31.3523 20.0988C31.1996 20.0988 31.0532 20.0382 30.9452 19.9303C30.7206 19.7063 30.7328 19.3275 30.9569 19.1034L34.1599 15.9005C34.2317 15.8287 34.2881 15.743 34.3258 15.6488C34.3636 15.5545 34.3817 15.4536 34.3793 15.352C34.3768 15.2505 34.3538 15.1506 34.3116 15.0582C34.2693 14.9659 34.2088 14.8831 34.1336 14.8149C33.9979 14.6917 33.8209 14.624 33.6377 14.625C33.43 14.6252 33.2309 14.7078 33.0841 14.8547L29.8839 18.0544C29.7759 18.1623 29.6295 18.2229 29.4768 18.2229C29.3241 18.2229 29.1777 18.1623 29.0697 18.0544C28.8456 17.8303 28.8574 17.4516 29.0814 17.2275L32.2844 14.0255C32.3562 13.9537 32.4127 13.868 32.4504 13.7738C32.4881 13.6795 32.5063 13.5786 32.5038 13.477C32.5014 13.3755 32.4783 13.2756 32.4361 13.1832C32.3939 13.0909 32.3333 13.0081 32.2581 12.9399C32.1224 12.8167 31.9454 12.749 31.7622 12.75C31.5545 12.7503 31.3554 12.8329 31.2086 12.9797L27.6016 16.5867C27.2521 16.9342 26.975 17.3476 26.7864 17.803C26.5978 18.2583 26.5014 18.7465 26.5028 19.2394V19.6252C26.5029 19.7238 26.4835 19.8215 26.4458 19.9126C26.4081 20.0037 26.3527 20.0865 26.283 20.1563L24.6138 21.8259C24.5964 21.8434 24.5757 21.8572 24.5529 21.8666C24.5301 21.8761 24.5057 21.8809 24.4811 21.8809C24.4565 21.8809 24.4321 21.8761 24.4093 21.8666C24.3865 21.8572 24.3659 21.8434 24.3485 21.8259L16.226 13.703C16.0858 13.5626 15.8957 13.4835 15.6973 13.483C15.4989 13.4825 15.3084 13.5606 15.1675 13.7002C14.4574 14.4038 14.0781 15.397 14.0781 16.5722C14.0735 18.5128 15.0935 20.7441 16.7402 22.3884L20.7456 26.3939C21.3149 26.9621 22.0864 27.2812 22.8906 27.2813C23.147 27.2814 23.4024 27.2486 23.6505 27.1838C23.7128 27.1674 23.7769 27.1591 23.8413 27.1589C24.0295 27.1589 24.2109 27.2301 24.3489 27.3581L24.8828 27.8513C25.0205 27.9919 25.0979 28.1808 25.0985 28.3777V28.6374C25.0971 29.2277 25.3291 29.7947 25.7439 30.2147L29.965 34.507L29.9692 34.5117C30.4377 34.9802 31.0731 35.2433 31.7356 35.2433C32.3982 35.2432 33.0335 34.98 33.502 34.5115C33.9704 34.043 34.2335 33.4076 34.2335 32.7451C34.2335 32.0826 33.9702 31.4472 33.5017 30.9788L27.1745 24.6516C27.1571 24.6342 27.1433 24.6135 27.1338 24.5907C27.1244 24.568 27.1196 24.5436 27.1196 24.5189C27.1196 24.4943 27.1244 24.4699 27.1338 24.4471C27.1433 24.4244 27.1571 24.4037 27.1745 24.3863L28.8438 22.717C28.9134 22.6473 28.9961 22.592 29.0872 22.5543C29.1782 22.5166 29.2758 22.4972 29.3744 22.4972H29.7611Z" fill="#EA6D26"/>
<path d="M22.8903 28.7812C21.6895 28.7787 20.5381 28.3029 19.6859 27.457L19.0362 26.8073C18.9659 26.7371 18.8707 26.6978 18.7714 26.6978C18.6721 26.6978 18.5768 26.7371 18.5065 26.8073L14.5221 30.771C13.812 31.4812 13.5584 32.5265 13.91 33.5502C13.9296 33.6079 13.953 33.6643 13.9798 33.719C14.4528 34.6874 15.3706 35.2499 16.3746 35.2499C16.7199 35.2508 17.062 35.1831 17.3809 35.0508C17.6999 34.9185 17.9894 34.7243 18.2328 34.4793L23.5465 29.1402C23.5689 29.1174 23.586 29.09 23.5967 29.0599C23.6074 29.0298 23.6114 28.9977 23.6084 28.9659V28.9537C23.6063 28.9244 23.5983 28.8959 23.5849 28.8699C23.5715 28.8438 23.553 28.8207 23.5304 28.802C23.5079 28.7833 23.4818 28.7694 23.4537 28.7611C23.4256 28.7527 23.3961 28.7502 23.367 28.7535C23.2087 28.7711 23.0496 28.7803 22.8903 28.7812Z" fill="#EA6D26"/>
</svg>
