<svg width="49" height="65" viewBox="0 0 49 65" fill="none" xmlns="http://www.w3.org/2000/svg">
<circle cx="24.5" cy="24.5" r="16.5" fill="#FEFEFE"/>
<path d="M24.5 0C10.9433 0 0 10.8875 0 24.375C0 40.625 24.5 65 24.5 65C24.5 65 49 40.625 49 24.375C49 10.8875 38.0567 0 24.5 0ZM24.5 8.125C28.8319 8.125 32.9863 9.83705 36.0494 12.8845C39.1125 15.932 40.8333 20.0652 40.8333 24.375C40.8333 33.3937 33.565 40.625 24.5 40.625C20.1681 40.625 16.0137 38.913 12.9506 35.8655C9.8875 32.818 8.16667 28.6848 8.16667 24.375C8.16667 20.0652 9.8875 15.932 12.9506 12.8845C16.0137 9.83705 20.1681 8.125 24.5 8.125Z" fill="#008080"/>
<path d="M14.2 16.8252C14.4939 16.8252 14.7776 16.9331 14.9972 17.1285C15.2169 17.3238 15.3572 17.5929 15.3916 17.8848L15.4 18.0252V25.2252H22.6V19.2252C22.6 18.9313 22.7079 18.6476 22.9033 18.4279C23.0986 18.2083 23.3677 18.068 23.6596 18.0336L23.8 18.0252H33.4C34.3183 18.0251 35.2018 18.376 35.8699 19.0059C36.538 19.6359 36.9401 20.4973 36.994 21.414L37 21.6252V31.2252C36.9997 31.5311 36.8825 31.8252 36.6726 32.0476C36.4626 32.27 36.1757 32.4039 35.8703 32.4218C35.565 32.4397 35.2643 32.3404 35.0298 32.1441C34.7953 31.9478 34.6445 31.6693 34.6084 31.3656L34.6 31.2252V27.6252H15.4V31.2252C15.3997 31.5311 15.2825 31.8252 15.0726 32.0476C14.8626 32.27 14.5757 32.4039 14.2703 32.4218C13.965 32.4397 13.6643 32.3404 13.4298 32.1441C13.1953 31.9478 13.0445 31.6693 13.0084 31.3656L13 31.2252V18.0252C13 17.7069 13.1264 17.4017 13.3515 17.1767C13.5765 16.9516 13.8817 16.8252 14.2 16.8252Z" fill="#008080"/>
<path d="M19 19.2251C19.4669 19.2252 19.9237 19.3616 20.3144 19.6175C20.705 19.8734 21.0125 20.2377 21.1991 20.6657C21.3858 21.0938 21.4435 21.567 21.3653 22.0273C21.287 22.4877 21.0761 22.9152 20.7585 23.2576C20.4409 23.5999 20.0303 23.8421 19.577 23.9545C19.1238 24.0669 18.6476 24.0447 18.2068 23.8905C17.766 23.7363 17.3798 23.4569 17.0955 23.0865C16.8111 22.7161 16.641 22.2708 16.606 21.8051L16.6 21.6251L16.606 21.4451C16.6514 20.8413 16.9233 20.277 17.3673 19.8653C17.8113 19.4536 18.3945 19.2249 19 19.2251Z" fill="#008080"/>
</svg>
