<svg width="115" height="115" viewBox="0 0 115 115" fill="none" xmlns="http://www.w3.org/2000/svg">
<path fill-rule="evenodd" clip-rule="evenodd" d="M54.6787 25.1915C55.2603 25.1869 55.2928 25.1915 55.5627 25.3218C55.7209 25.4009 55.9582 25.5777 56.1117 25.7312C56.2559 25.8801 56.4188 26.0616 56.47 26.1407C56.5258 26.2151 56.5956 26.3407 56.6328 26.4198C56.67 26.4943 56.7305 26.6525 56.7724 26.7688C56.8096 26.8851 56.8422 27.0572 56.8422 27.1503C56.8422 27.248 56.8003 27.5225 56.7491 27.7551C56.6933 27.9924 56.6049 28.2902 56.5444 28.4205C56.4793 28.5461 56.3443 28.7322 56.242 28.8253C56.135 28.923 55.9721 29.0439 55.8744 29.0905C55.7814 29.137 55.4091 29.2626 55.0509 29.3696C54.6926 29.472 54.2739 29.6116 54.1204 29.6767C53.9249 29.7558 53.7528 29.793 53.5481 29.793C53.3666 29.793 53.1712 29.7558 53.0177 29.7C52.8827 29.6488 52.7013 29.5511 52.6175 29.4906C52.5384 29.4255 52.4082 29.2859 52.3337 29.1742C52.2593 29.0672 52.1197 28.7462 52.0266 28.467C51.8917 28.0622 51.8545 27.8808 51.8498 27.6063C51.8498 27.3364 51.8778 27.1829 51.9708 26.9316C52.0406 26.7502 52.1569 26.5082 52.236 26.3826C52.3105 26.2616 52.4547 26.0755 52.5477 25.9732C52.6455 25.8662 52.8083 25.7219 52.9107 25.6521C53.013 25.587 53.2131 25.48 53.3527 25.4195C53.4922 25.359 53.7109 25.2846 53.8412 25.2567C53.9668 25.2241 54.3437 25.1962 54.6787 25.1915ZM65.217 25.1915C65.78 25.1915 65.8079 25.1915 66.101 25.3404C66.2918 25.4335 66.5244 25.6056 66.7338 25.815C67.0176 26.0988 67.0781 26.1918 67.213 26.5361C67.3526 26.9037 67.3665 26.9735 67.3712 27.5365C67.3805 28.1227 67.3758 28.1506 67.2409 28.4158C67.1618 28.5647 67.0269 28.7555 66.9385 28.8346C66.8501 28.9183 66.5988 29.0719 66.3801 29.1789C66.1615 29.2859 65.8591 29.4068 65.7055 29.4441C65.538 29.4859 65.1565 29.5185 64.7517 29.5232C64.1422 29.5325 64.0585 29.5232 63.8537 29.4301C63.7328 29.3743 63.5467 29.2487 63.435 29.1463C63.328 29.0486 63.1838 28.8532 63.114 28.7182C63.0442 28.574 62.9558 28.2855 62.9186 28.0343C62.8767 27.8017 62.8441 27.4853 62.8441 27.3364C62.8441 27.1922 62.8767 26.9642 62.9186 26.8386C62.9558 26.7083 63.0488 26.4896 63.1233 26.35C63.1977 26.2105 63.3652 25.9778 63.4862 25.8382C63.6118 25.6987 63.8072 25.5172 63.9189 25.4428C64.0305 25.3637 64.2353 25.2799 64.3795 25.252C64.5191 25.2194 64.8959 25.1962 65.217 25.1915ZM86.061 25.4986C86.1773 25.5079 86.3634 25.5498 86.4797 25.587C86.596 25.6289 86.838 25.6894 87.0148 25.7266C87.1916 25.7638 87.4242 25.8336 87.5266 25.8801C87.6289 25.9266 87.7918 26.0337 87.8941 26.1221C87.9918 26.2105 88.1221 26.364 88.1826 26.4664C88.2384 26.5687 88.3408 26.8572 88.4059 27.1038C88.485 27.3922 88.5269 27.6854 88.5269 27.8947C88.5269 28.1692 88.5036 28.2855 88.3966 28.5135C88.3222 28.6671 88.1826 28.8625 88.0802 28.9509C87.9825 29.0393 87.7918 29.1603 87.6662 29.2207C87.5359 29.2766 87.2567 29.3464 87.038 29.3743C86.8194 29.4022 86.4006 29.4673 86.1075 29.5185C85.7586 29.579 85.498 29.6023 85.3631 29.5836C85.2468 29.565 85.0606 29.5092 84.9443 29.458C84.828 29.4115 84.6419 29.2812 84.5349 29.1742C84.4232 29.0672 84.2743 28.8718 84.2092 28.7462C84.0882 28.5228 84.0836 28.481 84.0836 27.8389C84.0836 27.1643 84.0836 27.1643 84.2418 26.8618C84.3255 26.6943 84.4837 26.4338 84.5954 26.2802C84.7024 26.1267 84.8745 25.9313 84.9722 25.8429C85.07 25.7545 85.2281 25.6521 85.3165 25.6149C85.4049 25.573 85.5631 25.5265 85.6655 25.5079C85.7679 25.4893 85.9447 25.4846 86.061 25.4986ZM20.8537 25.5172C21.1375 25.5126 21.533 25.5451 21.7377 25.587C21.9424 25.6242 22.2681 25.7219 22.4589 25.801C22.7148 25.908 22.8776 26.0197 23.0684 26.2058C23.2498 26.3873 23.3522 26.5361 23.408 26.699C23.4546 26.8479 23.4918 27.1317 23.5011 27.4899C23.515 27.8808 23.5011 28.1274 23.4499 28.3042C23.4127 28.4437 23.3289 28.6531 23.2591 28.7694C23.194 28.8857 23.0823 29.0439 23.0126 29.1184C22.9474 29.1928 22.7287 29.3464 22.524 29.4534C22.324 29.5557 21.9657 29.7046 21.7377 29.7744C21.3981 29.8814 21.2306 29.9047 20.8537 29.9093C20.4489 29.9093 20.3605 29.8954 20.1791 29.7977C20.0628 29.7372 19.8348 29.5464 19.6673 29.3789C19.4812 29.1882 19.309 28.9555 19.216 28.7694C19.1369 28.6019 19.0438 28.3833 19.0113 28.2809C18.9787 28.1785 18.9508 27.8622 18.9461 27.0665L19.1834 26.5827C19.3649 26.2105 19.4812 26.0476 19.6487 25.8941C19.7743 25.7824 19.979 25.6521 20.1093 25.6056C20.2861 25.5405 20.4675 25.5172 20.8537 25.5172ZM28.4143 25.5405C28.4515 25.5451 28.5679 25.5637 28.6702 25.5823C28.7726 25.601 28.9587 25.6707 29.0843 25.7359C29.2099 25.8057 29.4146 25.9778 29.5403 26.1174C29.6659 26.257 29.8427 26.5175 29.9311 26.699C30.0428 26.9223 30.1125 27.1456 30.1498 27.3969C30.187 27.676 30.187 27.8575 30.1498 28.1181C30.1125 28.3553 30.0381 28.5787 29.9171 28.8113C29.8194 29.0021 29.6333 29.2673 29.5077 29.3975C29.3774 29.5325 29.1913 29.6767 29.089 29.7186C28.9866 29.7604 28.7447 29.8302 28.5539 29.8675C28.3631 29.9093 28.0281 29.9419 27.8095 29.9419C27.5675 29.9419 27.307 29.914 27.1348 29.8628C26.9813 29.8209 26.7766 29.7418 26.6789 29.6953C26.5858 29.6488 26.4276 29.5371 26.3299 29.4487C26.2369 29.365 26.1112 29.2021 26.0554 29.0905C25.9996 28.9788 25.9344 28.8113 25.9065 28.7229C25.8833 28.6345 25.8274 28.3646 25.7902 28.1274C25.7483 27.8947 25.7158 27.6202 25.7158 27.5225C25.7158 27.4295 25.7483 27.2247 25.7902 27.0712C25.8274 26.9177 25.9158 26.699 25.9856 26.5827C26.0508 26.4664 26.1903 26.2802 26.2927 26.1686C26.3997 26.0569 26.5672 25.9173 26.6696 25.8615C26.7719 25.801 26.972 25.7173 27.1116 25.6754C27.2511 25.6289 27.5861 25.5777 27.856 25.5591C28.1258 25.5405 28.3771 25.5312 28.4143 25.5405ZM100.438 25.7126C101.019 25.7266 101.145 25.7405 101.345 25.8336C101.471 25.8894 101.62 25.9732 101.666 26.015C101.713 26.0569 101.843 26.2291 101.95 26.3966C102.057 26.5641 102.196 26.8293 102.266 26.9875C102.387 27.2713 102.392 27.3085 102.392 28.1646C102.392 29.03 102.387 29.0532 102.266 29.3138C102.196 29.4627 102.034 29.686 101.899 29.8163C101.768 29.9419 101.559 30.1047 101.433 30.1745C101.308 30.2443 101.08 30.3327 100.926 30.3699C100.773 30.4118 100.559 30.4444 100.447 30.4444C100.34 30.4444 100.131 30.4072 99.9864 30.3606C99.8375 30.3141 99.5398 30.1745 99.3258 30.0443C99.1117 29.9186 98.8512 29.7232 98.7442 29.6069C98.6418 29.4906 98.5022 29.2905 98.4417 29.1649C98.3813 29.0346 98.3022 28.8253 98.2603 28.6996C98.2231 28.5647 98.1905 28.2855 98.1905 28.025C98.1905 27.7691 98.2231 27.4853 98.2603 27.3504C98.3022 27.2201 98.3766 27.0247 98.4371 26.9084C98.4929 26.792 98.6279 26.5734 98.7395 26.4198C98.8465 26.2663 99.0187 26.0802 99.1164 26.0011C99.2141 25.9266 99.4048 25.8243 99.5305 25.7824C99.7212 25.7126 99.8887 25.7033 100.438 25.7126ZM76.5462 25.8475C76.6486 25.8429 77.0999 25.8615 77.5466 25.8801C78.2677 25.9127 78.3887 25.9313 78.5888 26.029C78.7144 26.0895 78.8959 26.2151 78.9843 26.3035C79.0773 26.3919 79.2029 26.5687 79.2681 26.699C79.3704 26.9084 79.3844 27.0014 79.3983 27.583C79.4123 28.146 79.403 28.2669 79.3192 28.4903C79.2681 28.6298 79.1797 28.8066 79.1192 28.8857C79.0587 28.9602 78.8447 29.1463 78.64 29.2952C78.4352 29.4487 78.1468 29.6302 78.0025 29.7046C77.8537 29.7791 77.5978 29.8721 77.4303 29.9093C77.1744 29.9698 77.0022 29.9698 76.3276 29.9279C75.5971 29.8861 75.4994 29.8675 75.2435 29.7465C75.0853 29.672 74.8852 29.5278 74.7829 29.4115C74.6805 29.3045 74.5549 29.1184 74.5037 29.0021C74.4246 28.8299 74.4107 28.7089 74.4153 28.3042C74.42 27.9878 74.4572 27.7086 74.513 27.5132C74.5596 27.3457 74.6387 27.127 74.6852 27.0247C74.7364 26.9223 74.9132 26.7036 75.0807 26.5361C75.2575 26.364 75.504 26.1779 75.6622 26.0988C75.8158 26.0243 76.0345 25.9359 76.1508 25.9034C76.2671 25.8708 76.4439 25.8475 76.5462 25.8475ZM86.2006 31.8169C86.368 31.8309 86.5821 31.8588 86.6798 31.8867C86.7728 31.91 86.931 32.003 87.0287 32.0868C87.1218 32.1752 87.2474 32.3473 87.3032 32.473C87.3591 32.5986 87.4242 32.8266 87.4521 32.9801C87.48 33.1336 87.5219 34.6225 87.5498 36.33C87.5777 38.0189 87.6196 40.7501 87.6429 42.4018C87.6708 44.0535 87.708 46.7334 87.7359 48.3572C87.7592 49.981 87.8011 52.7447 87.8243 54.4987C87.8523 56.2528 87.8988 58.8164 87.922 60.1983C87.95 61.5801 87.9918 63.0969 88.0151 63.5714C88.043 64.046 88.0942 64.8509 88.1314 65.3627C88.1733 65.8745 88.2245 66.4933 88.2477 66.7353C88.271 66.9772 88.3175 67.4192 88.3501 67.7123C88.3827 68.0054 88.4106 68.6568 88.4106 69.1547C88.4106 70.0294 88.4059 70.0712 88.2943 70.2946C88.2291 70.4202 88.0942 70.6063 87.9918 70.704C87.8895 70.8017 87.7127 70.9087 87.5964 70.9506C87.48 70.9878 87.2614 71.0157 87.1078 71.0157C86.9543 71.0157 86.7356 70.9878 86.6193 70.9459C86.503 70.9087 86.3076 70.7877 86.1866 70.6807C86.0517 70.5644 85.9167 70.383 85.8563 70.248C85.7772 70.0805 85.7306 69.82 85.6748 69.2942C85.6329 68.8988 85.5771 68.3404 85.5538 68.0613C85.5259 67.7821 85.484 67.1633 85.4608 66.6887C85.4329 66.2142 85.4003 64.1205 85.3863 62.0361C85.3724 59.9517 85.3398 58.2209 85.3212 58.1976C85.2933 58.1697 85.2095 58.2488 85.0932 58.407C84.9909 58.5466 84.828 58.8211 84.7257 59.0118C84.6233 59.2026 84.2743 59.854 83.9533 60.4541C83.6369 61.0543 83.288 61.7243 83.1856 61.943C83.0786 62.1617 82.8925 62.5246 82.7669 62.7572C82.6459 62.9899 82.3993 63.4458 82.2225 63.7808C82.0504 64.1158 81.8363 64.5113 81.7572 64.6648C81.6735 64.8184 81.3385 65.4465 81.0128 66.0606C80.6825 66.6748 80.1567 67.6891 79.8403 68.3172C79.524 68.9453 79.2634 69.4896 79.2634 69.5269C79.2634 69.5641 79.2029 69.699 79.1331 69.8293C79.0587 69.9549 78.8447 70.2108 78.6539 70.3876C78.4678 70.5691 78.2352 70.7505 78.1421 70.7971C78.0444 70.8389 77.8955 70.8761 77.8164 70.8761C77.7327 70.8761 77.5605 70.825 77.4303 70.7598C77.3046 70.6993 77.1046 70.5551 76.9883 70.4481C76.8719 70.3364 76.7277 70.1503 76.6672 70.0387C76.6067 69.9223 76.5276 69.7362 76.4951 69.6199C76.4579 69.5036 76.4067 69.0756 76.3834 68.6661C76.3555 68.2567 76.3136 67.6379 76.2904 67.2936C76.2624 66.9493 76.2206 66.3817 76.1973 66.0374C76.1694 65.6931 76.1275 65.2092 76.0996 64.9672C76.0717 64.7253 76.0484 64.2321 76.0438 63.8739C76.0391 63.4086 76.0577 63.1434 76.1136 62.9433C76.1554 62.7898 76.2159 62.4315 76.2485 62.1524C76.295 61.7522 76.295 61.0497 76.2671 58.942C76.2438 57.4578 76.2252 50.9255 76.2206 44.4257C76.2206 34.013 76.2299 32.5893 76.2904 32.4683C76.3276 32.3939 76.4346 32.2822 76.523 32.2264C76.6719 32.124 76.7324 32.1147 77.3372 32.1194C77.6955 32.1194 78.0677 32.1426 78.1654 32.1659C78.2584 32.1938 78.3794 32.2543 78.4306 32.3055C78.4818 32.3566 78.5423 32.4776 78.5655 32.5707C78.5888 32.6684 78.6307 33.8967 78.6586 35.3064C78.6911 36.7115 78.733 39.0053 78.7563 40.4011C78.7842 41.7969 78.8261 44.1419 78.8493 45.6121C78.8772 47.0824 78.9191 49.418 78.9424 50.7998C78.9656 52.1817 79.0075 54.5173 79.0354 55.9876C79.0587 57.4578 79.1052 59.6632 79.1285 60.8822C79.1564 62.1059 79.2029 63.3062 79.2355 63.5482C79.2634 63.7901 79.3053 63.9902 79.3286 63.9902C79.3472 63.9902 79.4402 63.8599 79.5426 63.6971C79.6403 63.5389 79.8217 63.1992 79.952 62.9433C80.0776 62.6874 80.301 62.2454 80.4545 61.9663C80.6034 61.6871 80.7616 61.394 80.8034 61.3149C80.85 61.2358 81.0175 60.9241 81.1757 60.617C81.3339 60.3099 81.5014 59.9982 81.5479 59.9191C81.5898 59.84 81.7479 59.5469 81.8968 59.2677C82.0457 58.9886 82.3063 58.4954 82.4784 58.1743C82.6506 57.8533 82.8692 57.4346 82.9669 57.2438C83.0647 57.053 83.2089 56.7692 83.2833 56.6157C83.3624 56.4622 83.4787 56.2295 83.5485 56.1039C83.6183 55.9736 83.7579 55.7131 83.8603 55.5223C83.9626 55.3316 84.2046 54.8802 84.4 54.522C84.5907 54.1637 84.8234 53.7031 84.9118 53.4984C85.0002 53.2937 85.1025 52.9913 85.1491 52.8238C85.1909 52.6563 85.2421 52.3538 85.2654 52.1491C85.2933 51.9211 85.2933 50.9115 85.27 49.5204C85.2467 48.2781 85.2142 46.1518 85.2002 44.7979C85.1863 43.4393 85.1537 41.5689 85.1258 40.6338C85.1025 39.6986 85.0374 38.2562 84.9862 37.4234C84.935 36.5906 84.8745 35.66 84.8559 35.353C84.8327 35.0459 84.7861 34.4271 84.7536 33.9804C84.707 33.3384 84.707 33.1011 84.7489 32.8638C84.7815 32.6963 84.8559 32.4776 84.9164 32.3753C84.9769 32.2729 85.1165 32.124 85.2281 32.0496C85.3398 31.9705 85.5352 31.8821 85.6655 31.8542C85.7911 31.8216 86.0331 31.8076 86.2006 31.8169ZM68.0319 31.9426C68.6739 31.9379 69.53 31.9565 69.9394 31.9798C70.5164 32.0123 70.8514 32.0589 71.419 32.1845C71.8191 32.2775 72.21 32.3846 72.2891 32.4218C72.3681 32.459 72.5031 32.5521 72.5915 32.6311C72.6892 32.7149 72.7636 32.8312 72.7822 32.9196C72.7962 33.0034 72.7869 33.1476 72.7636 33.236C72.7357 33.3244 72.6101 33.4965 72.4891 33.6129C72.3681 33.7292 72.2239 33.8408 72.1727 33.8548C72.1216 33.8688 71.8703 33.9246 71.6144 33.9758C71.3585 34.027 70.8886 34.0967 70.5676 34.1386C70.2465 34.1758 69.7347 34.2177 69.4277 34.2363C69.1206 34.2503 68.3575 34.241 67.7294 34.2131C66.9292 34.1758 66.557 34.1758 66.4732 34.2084C66.4081 34.2363 66.329 34.3154 66.2964 34.3852C66.2452 34.4922 66.2452 35.8461 66.2871 41.89C66.315 45.9471 66.3569 50.1624 66.3801 51.2651C66.4034 52.3678 66.4453 54.0102 66.4732 54.9175C66.4965 55.8247 66.5383 57.2205 66.5616 58.0115C66.5895 58.8025 66.6314 60.1052 66.6593 60.8962C66.6826 61.6871 66.7291 63.1155 66.7524 64.06C66.7803 65.0045 66.8082 66.5585 66.8222 69.2244L66.6826 69.5036C66.5942 69.6804 66.4779 69.8246 66.3569 69.9084C66.2545 69.9828 66.0545 70.0712 65.9149 70.1085C65.7613 70.1503 65.445 70.1782 65.1379 70.1782C64.7052 70.1782 64.5796 70.1596 64.426 70.0852C64.3237 70.034 64.198 69.9363 64.1515 69.8619C64.1003 69.7921 64.0399 69.6292 64.0119 69.5036C63.9887 69.3733 63.9561 67.8659 63.9375 66.1537C63.9235 64.4415 63.891 60.1145 63.8677 56.5459C63.8398 52.9773 63.7886 48.6829 63.7514 47.0079C63.7142 45.333 63.663 43.0299 63.6351 41.89C63.6072 40.7501 63.5653 38.9402 63.542 37.8654C63.5141 36.7906 63.4862 35.5856 63.4722 35.1901C63.4583 34.7946 63.435 34.4131 63.4024 34.2131H61.0621C59.2569 34.2131 58.6009 34.1991 58.1682 34.1433C57.8611 34.106 57.4842 34.0409 57.3307 34.0083C57.1074 33.9525 57.019 33.9013 56.7352 33.5849L56.7584 33.1429C56.7724 32.808 56.805 32.6498 56.8794 32.5009C56.9352 32.3939 57.0376 32.2682 57.112 32.2171C57.1818 32.1705 57.3214 32.1054 57.4238 32.0775C57.554 32.0356 58.9638 32.0123 62.2393 31.9844C64.7843 31.9658 67.3944 31.9472 68.0319 31.9426ZM27.9956 32.2868C28.298 32.3008 28.4562 32.338 28.6702 32.4357C28.8238 32.5102 29.0331 32.6405 29.1355 32.7335C29.2378 32.8219 29.3774 32.9987 29.4472 33.1243C29.517 33.25 29.6101 33.5105 29.6519 33.7013C29.7171 34.0176 29.7217 34.455 29.6938 38.2376C29.6659 41.2014 29.6705 42.4204 29.7078 42.4018C29.7357 42.3878 29.9311 42.2436 30.1451 42.0761C30.3591 41.9132 30.7732 41.5364 31.071 41.2386C31.4308 40.8819 31.7007 40.564 31.8806 40.2848C32.0294 40.0522 32.2202 39.7265 32.304 39.5497C32.3924 39.3775 32.5319 39.0239 32.6203 38.7587C32.7087 38.4982 32.8576 38.0329 32.9507 37.7258C33.0437 37.4188 33.1368 37.1163 33.16 37.0512C33.1833 36.9861 33.2764 36.6836 33.3694 36.3766C33.4625 36.0695 33.5974 35.6321 33.6718 35.3995C33.7416 35.1669 33.8626 34.7481 33.9417 34.469C34.0161 34.1898 34.1045 33.7897 34.1371 33.5849C34.1697 33.3616 34.2395 33.1197 34.3139 32.9848C34.3837 32.8591 34.5233 32.6963 34.6256 32.6218C34.728 32.5474 34.8955 32.4637 34.9979 32.4404C35.1002 32.4125 35.277 32.4032 35.3933 32.4218C35.5096 32.4404 35.7097 32.5055 35.8353 32.5707C35.9656 32.6358 36.2169 32.8405 36.3983 33.022C36.6077 33.2313 36.7752 33.4547 36.8589 33.6315C36.9799 33.8827 36.9939 33.9572 36.9939 34.3759C36.9939 34.7249 36.9473 35.0552 36.817 35.7019C36.724 36.1765 36.5705 36.8651 36.4821 37.2373C36.389 37.6095 36.2634 38.0887 36.1982 38.3074C36.1378 38.5261 36.0028 38.9448 35.9051 39.2379C35.8074 39.5311 35.6818 39.8893 35.626 40.0289C35.5748 40.1685 35.3747 40.5872 35.1933 40.9501C35.0072 41.3177 34.728 41.7923 34.5745 41.997C34.4163 42.2064 34.1231 42.5553 33.9231 42.7693C33.7184 42.9834 33.3694 43.309 33.1368 43.4951C32.9041 43.6813 32.4854 43.979 32.2062 44.1558C31.9271 44.3326 31.5502 44.5467 31.3688 44.6304C31.1873 44.7141 30.8011 44.8816 30.508 44.998C30.2056 45.1189 29.9032 45.2771 29.8194 45.3562C29.731 45.4353 29.638 45.5795 29.6101 45.6819C29.5728 45.8215 29.5728 46.3705 29.6147 47.8687C29.6473 48.9667 29.6938 50.7673 29.7217 51.87C29.7496 52.9726 29.7869 54.508 29.8008 55.2897C29.8334 56.5971 29.8427 56.7227 29.9311 56.8949C29.9962 57.0251 30.0893 57.1135 30.2335 57.1833C30.3452 57.2392 30.7127 57.3834 31.0431 57.4997C31.3734 57.6207 31.9224 57.8533 32.2528 58.0208C32.5831 58.1836 33.0716 58.4488 33.3368 58.607C33.5974 58.7652 34.0394 59.063 34.3139 59.2677C34.5884 59.4724 34.9885 59.8074 35.2072 60.0121C35.4212 60.2169 35.733 60.5193 35.8958 60.6868C36.054 60.8543 36.3332 61.1567 36.5053 61.3614C36.6775 61.5661 36.9613 61.9197 37.1381 62.1524C37.3102 62.385 37.6127 62.8317 37.8081 63.1527C38.0035 63.4737 38.3664 64.1298 38.613 64.6183C38.8549 65.1068 39.1527 65.721 39.269 65.9908C39.3853 66.2607 39.5342 66.6283 39.604 66.8051C39.6738 66.9819 39.8134 67.382 39.9157 67.6891C40.0181 67.9961 40.1716 68.5265 40.26 68.8615C40.3484 69.2012 40.4182 69.5827 40.4182 69.713C40.4182 69.8526 40.381 70.0201 40.3252 70.1317C40.274 70.2341 40.153 70.369 40.06 70.4341C39.9623 70.4946 39.7575 70.5691 39.604 70.597C39.3993 70.6342 39.2364 70.6342 38.9992 70.597C38.8177 70.5691 38.5711 70.4993 38.4408 70.4388C38.3152 70.383 38.0919 70.2201 37.9476 70.0805C37.7708 69.9084 37.6359 69.7176 37.5243 69.4803C37.4312 69.2896 37.3242 68.9825 37.287 68.8057C37.2451 68.6289 37.1613 68.2474 37.0962 67.9682C37.0311 67.6891 36.8822 67.1633 36.7612 66.8051C36.6449 66.4468 36.4402 65.921 36.3146 65.6419C36.1889 65.3627 35.9889 64.9533 35.8726 64.7346C35.7562 64.5159 35.4771 64.0693 35.2584 63.7343C35.0072 63.3528 34.6954 62.9573 34.4163 62.6688C34.1743 62.4176 33.8068 62.0779 33.602 61.9197C33.3973 61.7569 33.0623 61.5243 32.8576 61.3986C32.6529 61.2684 32.2853 61.073 32.0434 60.9566C31.8015 60.8403 31.4432 60.6914 31.2524 60.6263C31.0617 60.5612 30.6895 60.4309 30.4289 60.3425C30.1637 60.2494 29.9404 60.175 29.9264 60.175C29.9125 60.175 29.9032 61.3009 29.8985 62.6735C29.8939 64.0507 29.8799 66.2002 29.8613 67.4564C29.8287 69.3919 29.8148 69.7688 29.7496 69.9456C29.7078 70.0619 29.5914 70.248 29.4984 70.3597C29.4007 70.4714 29.2378 70.6063 29.1355 70.6575C29.0099 70.7226 28.8517 70.7505 28.6469 70.7505C28.4748 70.7552 28.2329 70.718 28.0886 70.6714C27.949 70.6249 27.7304 70.5272 27.6001 70.4574C27.4745 70.383 27.2791 70.2294 27.172 70.1131C27.0604 69.9968 26.9115 69.7688 26.8324 69.606C26.7487 69.4292 26.6742 69.164 26.6416 68.922C26.5951 68.6103 26.5951 67.9403 26.637 65.8047C26.6696 64.3066 26.7161 62.1198 26.7394 60.9427C26.7673 59.7656 26.8231 57.295 26.8603 55.4525C26.9208 52.7772 26.9301 50.181 26.9162 42.5413C26.9022 34.134 26.9115 32.9568 26.972 32.78C27.0092 32.6684 27.093 32.5241 27.1581 32.4637C27.2232 32.3985 27.3489 32.3287 27.4373 32.3055C27.5257 32.2822 27.7769 32.2729 27.9956 32.2868ZM43.3494 32.3613C43.9449 32.3753 43.9915 32.3846 44.2567 32.5148C44.48 32.6265 44.5498 32.6916 44.6382 32.8638C44.694 32.9801 44.7731 33.2081 44.8104 33.3756C44.8476 33.5431 44.8987 33.8362 44.9267 34.027C44.9592 34.2177 45.0151 34.562 45.0523 34.7946C45.0942 35.0273 45.1686 35.4228 45.2198 35.6787C45.271 35.9345 45.3687 36.3766 45.4431 36.6557C45.5129 36.9349 45.6571 37.4281 45.7641 37.7491C45.8758 38.0701 46.0945 38.6005 46.2573 38.9355C46.4202 39.2659 46.7086 39.7823 46.8947 40.0754C47.0855 40.3685 47.4158 40.8431 47.6299 41.1223C47.8439 41.4014 48.2812 41.9365 48.5976 42.3087C48.9187 42.6809 49.2164 43.0113 49.2676 43.0392C49.3141 43.0718 49.3793 43.0904 49.4118 43.0764C49.4398 43.0671 49.4956 43.002 49.5282 42.9368C49.5561 42.8717 49.584 42.7786 49.584 42.7275C49.584 42.6763 49.6352 42.3041 49.7003 41.8993C49.7654 41.4991 49.8399 41.0432 49.8632 40.8896C49.8864 40.7361 49.9609 40.2662 50.026 39.8428C50.0865 39.4194 50.1656 38.9262 50.1888 38.7494C50.2168 38.568 50.2586 38.2981 50.2819 38.1446C50.3052 37.991 50.361 37.656 50.3982 37.4001C50.4401 37.1442 50.4913 36.8093 50.5145 36.6557C50.5378 36.5022 50.6122 36.0323 50.6774 35.6089C50.7379 35.1855 50.8123 34.6923 50.8402 34.5155C50.8681 34.334 50.924 34.0037 50.9658 33.7711C51.0077 33.5384 51.0822 33.2593 51.138 33.1476C51.1938 33.0359 51.2962 32.8917 51.3753 32.8266C51.4544 32.7614 51.6079 32.6684 51.7242 32.6172C51.8964 32.5381 52.0313 32.5195 52.4687 32.5148C52.9898 32.5148 53.013 32.5195 53.3527 32.6823C53.5434 32.7754 53.7574 32.9196 53.8319 32.9987C53.9017 33.0778 53.9808 33.2313 54.0087 33.3384C54.0366 33.4593 54.0459 33.6827 54.032 33.8874C54.0133 34.0781 53.9808 34.3806 53.9575 34.562C53.9342 34.7388 53.8831 35.1296 53.8412 35.4228C53.7993 35.7159 53.7342 36.1346 53.6923 36.3533C53.6551 36.572 53.6086 36.8511 53.5853 36.9814C53.562 37.107 53.5062 37.3908 53.469 37.6095C53.4271 37.8282 53.3759 38.1073 53.3527 38.2376C53.3294 38.3632 53.2782 38.6471 53.2363 38.8657C53.1991 39.0844 53.1433 39.3729 53.12 39.5032C53.0921 39.6381 53.0502 39.8661 53.027 40.0056C53.0037 40.1452 52.9618 40.3732 52.9339 40.5035C52.9107 40.6384 52.8548 40.9269 52.8176 41.1455C52.7757 41.3642 52.7246 41.6527 52.6966 41.783C52.6734 41.9179 52.6361 42.1412 52.6082 42.2715C52.585 42.4064 52.5291 42.6949 52.4919 42.9136C52.45 43.1322 52.3989 43.4114 52.3756 43.5417C52.3523 43.6673 52.2779 44.0581 52.2128 44.4024C52.1476 44.7467 52.0639 45.2073 52.0266 45.426C51.9894 45.6447 51.9289 45.9657 51.8917 46.1472C51.8545 46.324 51.8033 46.6078 51.7708 46.7753C51.7428 46.9428 51.6963 47.1708 51.6777 47.2871C51.6544 47.4034 51.58 47.7803 51.5149 48.1246C51.4544 48.4689 51.3799 48.869 51.352 49.0086C51.3241 49.1481 51.2543 49.5297 51.1892 49.8554C51.124 50.1857 51.0728 50.5114 51.0728 50.5905C51.0728 50.6696 51.0542 50.8185 51.031 50.9255C51.0077 51.0371 50.9565 51.293 50.9147 51.4977C50.8774 51.7025 50.7983 52.1119 50.7472 52.405C50.6913 52.6981 50.5936 53.2006 50.5331 53.5217C50.4727 53.8427 50.3982 54.2196 50.3749 54.3591C50.347 54.4987 50.2772 54.8849 50.2121 55.2199C50.147 55.5549 50.0725 55.9504 50.0446 56.1039C50.0167 56.2574 49.9655 56.518 49.9329 56.6855C49.9004 56.853 49.8492 57.1135 49.8213 57.2671C49.7934 57.4206 49.7189 57.8068 49.6584 58.1278C49.5933 58.4488 49.5002 58.9513 49.4444 59.2445C49.3886 59.5376 49.2955 60.0308 49.235 60.3378C49.1746 60.6449 49.0489 61.2916 48.9559 61.7802C48.8628 62.2687 48.7139 63.0224 48.6302 63.4551C48.5464 63.8878 48.4441 64.4136 48.4022 64.6183C48.365 64.823 48.258 65.3348 48.1696 65.7582C48.0812 66.1816 47.9881 66.6096 47.9649 66.712C47.9369 66.8144 47.8904 67.0563 47.8625 67.2471C47.8299 67.4378 47.7136 68.0054 47.602 68.5033C47.4856 69.0011 47.3274 69.5874 47.2437 69.806C47.1599 70.0201 47.039 70.2806 46.9692 70.3737C46.8947 70.4714 46.7505 70.5923 46.6435 70.6435C46.5318 70.6947 46.3504 70.7366 46.2341 70.7366C46.1177 70.7366 45.8386 70.6947 45.606 70.6482C45.3733 70.6016 45.0988 70.5179 44.9918 70.4621C44.8801 70.4109 44.7545 70.3178 44.7126 70.2573C44.6661 70.2015 44.601 70.048 44.5638 69.9223C44.5079 69.7316 44.5079 69.6199 44.5544 69.2942C44.587 69.0756 44.6289 68.7406 44.6568 68.5498C44.6801 68.359 44.7313 68.0427 44.7731 67.8519C44.8103 67.6611 44.9639 66.8748 45.1174 66.1072C45.271 65.3395 45.4338 64.5113 45.485 64.2693C45.5362 64.0274 45.606 63.6598 45.6478 63.4551C45.6897 63.2504 45.7734 62.8224 45.8432 62.5013C45.9084 62.1803 45.9782 61.8267 46.0014 61.7104C46.02 61.5941 46.248 60.4448 46.5086 59.1514C46.7691 57.858 47.0297 56.5599 47.0948 56.2667C47.1553 55.9736 47.2344 55.5642 47.2763 55.3595C47.3135 55.1548 47.3926 54.7779 47.4438 54.522C47.4949 54.2661 47.5601 53.9404 47.588 53.8008C47.6159 53.6612 47.6671 53.41 47.7043 53.2425C47.7415 53.075 47.802 52.7307 47.8392 52.4748C47.8765 52.2189 47.9416 51.8607 47.9788 51.6839C48.0207 51.5071 48.0812 51.2093 48.1137 51.0325C48.151 50.8557 48.2115 50.5393 48.2533 50.3346C48.2952 50.1299 48.4348 49.4506 48.5651 48.8225C48.6953 48.1943 48.8163 47.5151 48.8256 47.3103C48.8442 46.966 48.8349 46.9149 48.7046 46.659C48.593 46.4403 48.379 46.1937 47.695 45.5191C47.2158 45.0445 46.6807 44.4955 46.5086 44.2954C46.3318 44.1 46.0107 43.6999 45.7967 43.4114C45.5827 43.1276 45.2523 42.6391 45.0616 42.332C44.8708 42.0249 44.5265 41.3968 44.2986 40.9362C44.0659 40.4756 43.7728 39.8474 43.6425 39.5404C43.5122 39.2333 43.3168 38.7634 43.2145 38.4935C43.1121 38.2237 42.9539 37.7817 42.8655 37.5025C42.7725 37.228 42.6469 36.7999 42.5817 36.5487C42.5166 36.3021 42.4328 35.9485 42.3956 35.7717C42.3584 35.5903 42.2793 35.1436 42.2142 34.7714C42.1537 34.3992 42.0746 33.8874 42.042 33.6315C42.0001 33.2686 41.9955 33.1197 42.042 32.9568C42.0699 32.8405 42.1537 32.6916 42.2235 32.6172C42.2932 32.5474 42.4328 32.459 42.5352 32.4218C42.6748 32.3706 42.8795 32.3566 43.3494 32.3613ZM21.2027 32.4497C21.6354 32.445 21.9052 32.4637 22.0634 32.5102C22.1937 32.5521 22.3891 32.6591 22.5008 32.7568C22.6124 32.8545 22.7427 33.008 22.7846 33.0964C22.8311 33.1848 22.8916 33.3849 22.9149 33.5384C22.9428 33.692 22.9893 34.5806 23.0219 35.5158C23.0637 36.8093 23.0637 37.4467 23.0219 38.1911C22.9939 38.7262 22.9474 39.4938 22.9242 39.8893C22.9009 40.2848 22.8497 41.3223 22.8078 42.1924C22.7706 43.0624 22.7194 44.5792 22.6915 45.5656C22.6636 46.552 22.645 48.7155 22.645 50.3811C22.645 52.0421 22.6636 54.3452 22.6915 55.4991C22.7148 56.6483 22.7613 59.3608 22.7892 61.5243C22.8218 63.6878 22.8451 66.3165 22.8497 67.3634C22.8544 68.6708 22.8358 69.4338 22.7939 69.7828C22.7613 70.0619 22.7101 70.4295 22.6822 70.597C22.6543 70.7645 22.6078 70.9506 22.5752 71.0157C22.5426 71.0809 22.4542 71.1879 22.3705 71.2577C22.2914 71.3321 22.1379 71.4112 22.0308 71.4391C21.9192 71.467 21.6726 71.481 21.4818 71.467C21.2678 71.4577 21.0445 71.4065 20.9002 71.3461C20.7746 71.2902 20.5978 71.1925 20.5187 71.1274C20.435 71.0669 20.314 70.9273 20.2489 70.8157C20.1837 70.7086 20.1 70.5039 20.0581 70.3644C19.9883 70.141 19.979 69.7223 19.9651 67.1307C19.9511 65.493 19.9371 64.0693 19.9232 63.9669C19.9092 63.8646 19.872 63.7436 19.8441 63.6924C19.7836 63.6087 19.7789 63.6087 19.6208 63.6878C19.5324 63.7343 19.2904 63.9437 19.0904 64.1484C18.8903 64.3577 18.6018 64.6741 18.4576 64.8509C18.3087 65.0277 18.0621 65.3767 17.8993 65.6186C17.7411 65.8606 17.4387 66.4189 17.2246 66.8516C17.0106 67.2843 16.671 68.052 16.4662 68.5498C16.2615 69.0476 16.0289 69.592 15.9544 69.7595C15.88 69.927 15.8056 70.1178 15.7916 70.1875C15.773 70.262 15.6753 70.49 15.5729 70.6993C15.4752 70.9134 15.317 71.1646 15.224 71.2577C15.1356 71.3554 14.9913 71.4717 14.9122 71.5136C14.7959 71.574 14.6564 71.5927 14.3632 71.588C14.1446 71.5834 13.8654 71.5554 13.7351 71.5275C13.6095 71.4996 13.4001 71.4391 13.2699 71.4019C13.1442 71.36 12.9674 71.2809 12.8883 71.2204C12.8046 71.16 12.7022 71.0483 12.665 70.9692C12.6278 70.8901 12.5952 70.7319 12.5952 70.6063C12.5952 70.4853 12.6371 70.1876 12.6883 69.9456C12.7441 69.7037 12.8092 69.3966 12.8325 69.271C12.8604 69.1407 12.9023 68.9546 12.9256 68.8522C12.9488 68.7499 12.986 68.5917 13.0093 68.5033C13.0326 68.4149 13.1024 68.1404 13.1675 67.8984C13.2373 67.6565 13.3722 67.2145 13.4746 66.9214C13.5723 66.6283 13.7212 66.2281 13.7956 66.0374C13.87 65.8466 14.0236 65.5023 14.1353 65.2697C14.2469 65.037 14.4609 64.6323 14.6098 64.3624C14.7634 64.0925 15.0565 63.6366 15.2659 63.3481C15.4706 63.055 15.6753 62.7712 15.7125 62.72C15.7497 62.6642 15.9265 62.4548 16.108 62.2501C16.2848 62.05 16.6942 61.6499 17.0153 61.3614C17.3363 61.073 17.89 60.5937 18.2482 60.2913C18.6065 59.9889 18.9415 59.7004 18.9973 59.6446C19.0531 59.5934 19.2253 59.4213 19.3835 59.2677C19.5835 59.0723 19.6952 58.9188 19.7557 58.7559C19.8348 58.5466 19.8487 58.2441 19.8953 55.9178C19.9232 54.4848 19.9697 52.191 19.993 50.8231C20.0162 49.4552 20.0535 47.8687 20.1093 46.2728L18.8763 46.2495C17.9551 46.2356 17.555 46.2077 17.2944 46.1518C17.1037 46.1053 16.7454 45.975 16.5035 45.8587C16.1406 45.6819 15.9963 45.5795 15.6986 45.2771C15.4892 45.0631 15.1821 44.6723 14.9495 44.3187C14.7354 43.993 14.4563 43.5184 14.326 43.2625C14.2004 43.0066 14.0189 42.5972 13.9305 42.3552C13.8375 42.1133 13.7305 41.7876 13.6886 41.6341C13.6514 41.4805 13.5862 41.206 13.549 41.0292C13.5164 40.8478 13.4653 40.4523 13.4373 40.1452C13.4048 39.7684 13.4001 39.3822 13.4327 38.9588C13.456 38.6145 13.5025 38.1957 13.5304 38.0283C13.5583 37.8608 13.6095 37.5909 13.6514 37.4234C13.6886 37.2559 13.7863 36.9442 13.8607 36.7255C13.9398 36.5068 14.0562 36.223 14.1166 36.0974C14.1818 35.9671 14.3493 35.688 14.4889 35.4693C14.6424 35.2366 14.9402 34.883 15.2193 34.6039C15.4752 34.348 15.8474 34.0316 16.0382 33.9106C16.229 33.785 16.6151 33.5756 16.8989 33.4407C17.1828 33.3058 17.6294 33.1243 17.8993 33.0359C18.1691 32.9475 18.5879 32.8219 18.8298 32.7568C19.0717 32.6916 19.4393 32.6172 19.644 32.5846C19.8487 32.5567 20.1419 32.5148 20.2954 32.4962C20.4489 32.473 20.8584 32.4543 21.2027 32.4497ZM18.1784 36.8418C17.9365 37 17.5689 37.2792 17.3689 37.4513C17.1641 37.6281 16.8571 37.9492 16.6803 38.1678C16.5035 38.3865 16.2894 38.6982 16.2057 38.8657C16.1219 39.0332 16.0242 39.2845 15.9917 39.4241C15.9591 39.5636 15.9312 39.7963 15.9312 39.9359C15.9358 40.0754 15.9591 40.2848 15.987 40.4011C16.0196 40.5174 16.0847 40.7268 16.1406 40.8664C16.1964 41.006 16.3174 41.2572 16.4104 41.4247C16.5081 41.5922 16.6896 41.8481 16.8105 41.9923C16.9362 42.1412 17.1828 42.3739 17.3642 42.5181C17.5457 42.6577 17.8574 42.8577 18.0621 42.9601C18.2668 43.0578 18.5925 43.1927 18.7833 43.2579C18.974 43.3183 19.2672 43.3928 19.4346 43.4207C19.6021 43.4486 19.7929 43.4719 19.8673 43.4719H19.993C19.993 36.6743 19.979 35.888 19.9371 35.888C19.9046 35.8927 19.5928 36.0416 19.2485 36.2184C18.9042 36.3998 18.4204 36.679 18.1784 36.8418ZM100.159 32.4637C100.577 32.473 100.959 32.5009 101.066 32.5381C101.173 32.5707 101.345 32.687 101.466 32.8126C101.596 32.9382 101.708 33.1011 101.74 33.2127C101.768 33.3151 101.824 33.6501 101.861 33.9572C101.908 34.3061 101.941 35.1482 101.959 36.2137C101.978 37.5025 101.968 38.1678 101.913 38.982C101.871 39.5683 101.815 40.4383 101.787 40.9129C101.764 41.3875 101.722 42.225 101.694 42.774C101.671 43.323 101.624 44.6211 101.596 45.6586C101.559 46.873 101.55 48.762 101.568 50.9627C101.587 52.8424 101.62 55.9318 101.647 57.8254C101.675 59.719 101.713 62.9015 101.731 64.8975C101.75 66.8935 101.75 68.7871 101.731 69.1081C101.717 69.4292 101.68 69.8758 101.652 70.1085C101.624 70.3411 101.573 70.6435 101.545 70.7831C101.503 70.9646 101.438 71.0902 101.322 71.2065C101.229 71.3042 101.08 71.4019 100.973 71.4298C100.87 71.4577 100.656 71.481 100.498 71.481C100.331 71.481 100.079 71.4391 99.9166 71.3879C99.7538 71.3368 99.5444 71.2391 99.4421 71.1646C99.3304 71.0855 99.2094 70.9366 99.121 70.7598C99.0419 70.6063 98.9535 70.355 98.921 70.2015C98.8744 69.9875 98.8605 69.2105 98.8558 66.9074C98.8558 64.3391 98.8465 63.8739 98.7163 63.5714L98.5627 63.6505C98.4836 63.6924 98.2091 63.925 97.9532 64.1716C97.702 64.4182 97.353 64.8044 97.1809 65.037C97.0087 65.2697 96.7668 65.6233 96.6458 65.828C96.5202 66.0327 96.3201 66.4003 96.1992 66.6422C96.0735 66.8842 95.9712 67.0982 95.9712 67.1168C95.9712 67.14 95.8828 67.3494 95.7804 67.582C95.6734 67.8193 95.5385 68.1171 95.4826 68.2474C95.4268 68.373 95.1523 69.0337 94.8731 69.713C94.594 70.3923 94.3055 71.039 94.2264 71.1553C94.152 71.267 94.0031 71.4112 93.9007 71.467C93.7472 71.5554 93.6402 71.574 93.3192 71.574C93.1005 71.574 92.7469 71.5415 92.5282 71.4996C92.3095 71.4624 92.0397 71.3833 91.928 71.3275C91.807 71.267 91.6907 71.16 91.6349 71.0623C91.5558 70.9227 91.5465 70.8389 91.5697 70.5039C91.5837 70.2853 91.6163 70.0014 91.6395 69.8758C91.6628 69.7455 91.7093 69.5083 91.7372 69.3408C91.7698 69.1733 91.8861 68.6801 91.9931 68.2474C92.1048 67.8147 92.2816 67.1959 92.3886 66.8748C92.5003 66.5538 92.6259 66.2049 92.6724 66.0932C92.7236 65.9862 92.7608 65.8606 92.7608 65.814C92.7608 65.7722 92.919 65.4186 93.1051 65.037C93.2959 64.6509 93.6169 64.0879 93.8216 63.7808C94.0264 63.4737 94.3939 62.9899 94.6359 62.7107C94.8778 62.4315 95.3151 61.9663 95.6036 61.6871C95.8967 61.4033 96.5295 60.831 97.018 60.4123C97.5019 59.9889 98.0044 59.5515 98.1254 59.4352C98.251 59.3189 98.4138 59.1328 98.4883 59.0211C98.5627 58.9141 98.6511 58.7047 98.6883 58.5559C98.7395 58.3604 98.7721 57.7091 98.8047 56.0806C98.8326 54.8663 98.8744 52.6237 98.9024 51.1023C98.9303 49.5808 98.9582 47.9757 98.9675 47.543C98.9815 47.1056 98.9721 46.6404 98.9256 46.2635H97.8788C97.1948 46.2635 96.7017 46.2402 96.4597 46.1984C96.255 46.1611 95.9293 46.0681 95.7385 45.989C95.5478 45.9145 95.2547 45.761 95.0872 45.654C94.9197 45.547 94.6824 45.3609 94.5568 45.2446C94.4311 45.1282 94.2218 44.8816 94.0868 44.7048C93.9566 44.5234 93.7425 44.2024 93.6123 43.9837C93.482 43.765 93.3005 43.4393 93.2121 43.2625C93.1237 43.0811 92.9935 42.8019 92.9237 42.6344C92.8539 42.4669 92.7794 42.2575 92.7608 42.1691C92.7376 42.0807 92.6678 41.8062 92.598 41.5643C92.5282 41.3223 92.4444 40.9455 92.4072 40.7268C92.37 40.4942 92.3421 39.9917 92.3421 39.5171C92.3421 39.0425 92.37 38.5168 92.4072 38.2609C92.4444 38.0189 92.5282 37.6002 92.598 37.3304C92.6631 37.0605 92.7422 36.7581 92.7655 36.6557C92.7934 36.5534 92.9097 36.2835 93.026 36.0509C93.1423 35.8182 93.3331 35.4972 93.4494 35.3297C93.5657 35.1622 93.8402 34.8505 94.0589 34.6318C94.2776 34.4131 94.6359 34.12 94.8545 33.9758C95.0732 33.8315 95.4594 33.6082 95.7153 33.4779C95.9712 33.3523 96.4644 33.1476 96.8087 33.0313C97.153 32.915 97.6787 32.7661 97.9718 32.6963C98.2649 32.6311 98.7162 32.5474 98.9721 32.5148C99.2374 32.4776 99.7445 32.459 100.159 32.4637ZM97.8322 36.465C97.5112 36.6743 96.9668 37.0558 96.6225 37.3117C96.2736 37.5723 95.827 37.9538 95.6222 38.1725C95.4175 38.3912 95.1849 38.6936 95.1011 38.8425C95.0174 38.996 94.9197 39.224 94.8824 39.3543C94.8406 39.4845 94.808 39.759 94.808 39.9824C94.808 40.2011 94.8359 40.4709 94.8731 40.5872C94.9057 40.7035 94.9848 40.8896 95.0406 41.006C95.1011 41.1223 95.2128 41.3084 95.2919 41.4247C95.371 41.541 95.6036 41.8155 95.8083 42.0389C96.013 42.2622 96.3294 42.56 96.5062 42.6949C96.683 42.8298 96.9808 43.0066 97.1576 43.095C97.3344 43.1788 97.6322 43.2904 97.809 43.3323C97.9858 43.3788 98.3068 43.43 98.5208 43.444L98.9024 43.4719C98.9024 37.6328 98.8977 35.9345 98.8884 35.9392C98.8837 35.9392 98.7721 35.9718 98.6465 36.0136C98.5162 36.0509 98.1533 36.2556 97.8322 36.465ZM44.1385 81.8425C44.2409 81.8565 44.3851 81.889 44.4642 81.9216C44.5387 81.9542 44.6783 82.0426 44.7667 82.1217C44.8551 82.1961 45.0086 82.4148 45.1063 82.6055C45.1994 82.7916 45.3064 83.0708 45.3389 83.2197C45.3855 83.4523 45.3808 83.5268 45.311 83.8013C45.2645 83.9688 45.1528 84.2433 45.0644 84.4015C44.976 84.5643 44.8364 84.7458 44.7527 84.8109C44.6689 84.8714 44.4689 84.9551 44.3014 84.997C44.1339 85.0389 43.8222 85.0715 43.6035 85.0715C43.3197 85.0715 43.1336 85.0435 42.9521 84.9784C42.78 84.9133 42.6311 84.8156 42.4962 84.6713C42.3891 84.555 42.2775 84.4015 42.2496 84.3317C42.2216 84.2619 42.1705 84.0246 42.1286 83.8106C42.0914 83.5919 42.0681 83.3081 42.0821 83.1825C42.0914 83.0522 42.1425 82.8521 42.1937 82.7405C42.2403 82.6242 42.3659 82.438 42.4636 82.3264C42.5659 82.2194 42.752 82.0751 42.8823 82.0147C43.0405 81.9356 43.2452 81.8844 43.5337 81.8611C43.7617 81.8378 44.0362 81.8286 44.1385 81.8425Z" fill="#008080"/>
<path d="M15.6525 76.7915C16.0122 76.7915 16.0122 77.3741 15.6525 77.3569C15.3098 77.3569 14.95 77.3569 14.6074 77.3569C14.6416 81.366 14.6588 85.3921 14.693 89.4183C14.693 89.7781 14.1105 89.7781 14.1105 89.4183C14.0763 85.3921 14.0591 81.366 14.042 77.3569C13.6651 77.3569 13.2882 77.3569 12.9284 77.3569C12.5514 77.3741 12.5514 76.7915 12.9284 76.7915C13.8364 76.7744 14.7444 76.7744 15.6525 76.7915Z" fill="#008080"/>
<path d="M22.6676 87.8935C22.7533 88.5103 22.5477 89.1442 21.9994 89.4868C21.4512 89.8295 20.7488 89.8124 20.132 89.6924C19.9949 89.6582 19.9093 89.5725 19.9093 89.4183C19.8921 85.3065 19.8579 81.1946 19.8407 77.0828C19.8407 76.9457 19.9435 76.7915 20.1662 76.7915C20.7659 76.7573 21.4683 76.723 22.0166 77.0143C22.5477 77.3055 22.7361 77.9052 22.6676 78.4705C22.5477 79.6184 21.4169 79.9097 20.4232 79.8412C20.4404 82.1027 20.4575 84.3813 20.4746 86.6428C21.4169 86.5743 22.4963 86.797 22.6676 87.8935ZM21.5883 77.4597C21.2285 77.3398 20.8173 77.3398 20.4232 77.3569C20.4232 77.9908 20.4232 78.6247 20.4232 79.2758C21.1085 79.3272 22.0166 79.2073 22.1022 78.402C22.1365 77.9737 21.9994 77.5968 21.5883 77.4597ZM21.6739 89.0071C22.068 88.7673 22.1708 88.3218 22.0851 87.9106C21.9138 87.2082 21.0914 87.1568 20.4746 87.2082C20.4746 87.8592 20.4918 88.5103 20.4918 89.1785C20.8858 89.2299 21.3313 89.2127 21.6739 89.0071Z" fill="#008080"/>
<path d="M29.8948 78.7447C30.049 80.3551 29.9976 82.017 29.9804 83.6446C29.9804 84.3984 29.9976 85.1694 29.9804 85.9233C29.9633 86.7456 29.9804 87.6365 29.7577 88.4246V88.4418C29.5693 89.0071 29.2095 89.5725 28.5927 89.6753C28.1644 89.761 27.7532 89.5896 27.4791 89.247C26.9137 88.5445 26.8966 87.4995 26.8623 86.6428C26.8109 85.2893 26.7766 83.9359 26.7766 82.5824C26.7766 81.8628 26.7938 81.1604 26.828 80.4408C26.8452 79.824 26.8452 79.1901 26.9137 78.5733C27.0336 77.6824 27.4791 76.6888 28.5413 76.7915C29.5007 76.8943 29.8262 77.9223 29.8948 78.7447ZM28.2843 89.1099C28.7812 89.1956 29.0724 88.6816 29.1923 88.2876C29.4322 87.4995 29.3979 86.5914 29.3979 85.7691C29.4151 85.0495 29.3979 84.3128 29.4151 83.5761C29.4151 82.0855 29.4322 80.595 29.3465 79.1045C29.3123 78.5391 29.2437 77.5283 28.5756 77.3741C27.6675 77.1856 27.4962 78.3849 27.4619 79.0017C27.2906 81.4859 27.342 84.0044 27.4448 86.5058C27.4619 87.1911 27.4791 87.9106 27.7361 88.5617C27.8389 88.8015 27.9931 89.0757 28.2843 89.1099Z" fill="#008080"/>
<path d="M36.505 75.8664C36.882 75.8493 36.882 76.4318 36.505 76.4489C36.1966 76.4489 35.8711 76.4489 35.5627 76.4489C35.1858 76.4318 35.1858 75.8664 35.5627 75.8664C35.8711 75.8835 36.1966 75.8835 36.505 75.8664ZM36.8648 77.0828C36.882 76.7059 37.4473 76.7059 37.4473 77.0828C37.4302 81.1946 37.3959 85.3065 37.3788 89.4183C37.3617 89.7781 36.7963 89.7781 36.7963 89.4183C36.8134 86.7456 36.8306 84.0729 36.8477 81.4174C36.2652 83.3362 35.6655 85.2551 35.0316 87.1568C35.0316 87.1739 35.0316 87.1739 35.0316 87.1739C35.0316 87.9278 35.0145 88.6645 35.0145 89.4183C35.0145 89.7781 34.432 89.7781 34.432 89.4183C34.4662 85.3065 34.5005 81.1946 34.5176 77.0828C34.5176 76.7059 35.1002 76.7059 35.1002 77.0828C35.083 79.8069 35.0659 82.531 35.0488 85.2551C35.6655 83.2848 36.2823 81.3146 36.8648 79.3272C36.8648 78.5733 36.8648 77.8366 36.8648 77.0828Z" fill="#008080"/>
<path d="M52.5095 78.7447C52.6637 80.3551 52.6123 82.017 52.5951 83.6446C52.5951 84.3984 52.6123 85.1694 52.5951 85.9233C52.578 86.7456 52.5951 87.6365 52.3724 88.4246V88.4418C52.184 89.0071 51.8242 89.5725 51.2074 89.6753C50.7791 89.761 50.3679 89.5896 50.0938 89.247C49.5284 88.5445 49.5113 87.4995 49.477 86.6428C49.4256 85.2893 49.3913 83.9359 49.3913 82.5824C49.3913 81.8628 49.4085 81.1604 49.4427 80.4408C49.4599 79.824 49.4599 79.1901 49.5284 78.5733C49.6483 77.6824 50.0938 76.6888 51.156 76.7915C52.1154 76.8943 52.4409 77.9223 52.5095 78.7447ZM50.899 89.1099C51.3959 89.1956 51.6871 88.6816 51.807 88.2876C52.0469 87.4995 52.0126 86.5914 52.0126 85.7691C52.0298 85.0495 52.0126 84.3128 52.0298 83.5761C52.0298 82.0855 52.0469 80.595 51.9612 79.1045C51.927 78.5391 51.8584 77.5283 51.1903 77.3741C50.2822 77.1856 50.1109 78.3849 50.0766 79.0017C49.9053 81.4859 49.9567 84.0044 50.0595 86.5058C50.0766 87.1911 50.0938 87.9106 50.3508 88.5617C50.4536 88.8015 50.6078 89.0757 50.899 89.1099Z" fill="#008080"/>
<path d="M59.2397 77.0143C59.7536 77.3055 59.9421 77.9052 59.8736 78.4705C59.7536 79.6184 58.6229 79.9097 57.6463 79.8412C57.6635 83.0278 57.6806 86.2145 57.6977 89.4183C57.6977 89.7781 57.1323 89.7781 57.1152 89.4183C57.0981 85.3065 57.0638 81.1946 57.0467 77.0828C57.0467 76.9457 57.1495 76.7915 57.3722 76.7915C57.9718 76.7573 58.6743 76.723 59.2397 77.0143ZM59.3082 78.402C59.3425 77.9737 59.2054 77.5968 58.7942 77.4597C58.4344 77.3398 58.0232 77.3398 57.6292 77.3569C57.6292 77.9908 57.6292 78.6247 57.6292 79.2758C58.3145 79.3272 59.2225 79.2073 59.3082 78.402Z" fill="#008080"/>
<path d="M66.2314 77.0828C66.2485 76.7059 66.8139 76.7059 66.8139 77.0828C66.7968 81.1946 66.7625 85.3065 66.7454 89.4183C66.7282 89.7781 66.1629 89.7781 66.1629 89.4183C66.18 86.7456 66.1971 84.0729 66.2143 81.4174C65.6317 83.3362 65.0321 85.2551 64.3982 87.1568C64.3982 87.1739 64.3982 87.1739 64.3982 87.1739C64.3982 87.9278 64.3811 88.6645 64.3811 89.4183C64.3811 89.7781 63.7986 89.7781 63.7986 89.4183C63.8328 85.3065 63.8671 81.1946 63.8842 77.0828C63.8842 76.7059 64.4667 76.7059 64.4667 77.0828C64.4496 79.8069 64.4325 82.531 64.4153 85.2551C65.0321 83.2848 65.6489 81.3146 66.2314 79.3272C66.2314 78.5733 66.2314 77.8366 66.2314 77.0828Z" fill="#008080"/>
<path d="M73.0262 89.1271C73.4031 89.1271 73.4031 89.7096 73.0262 89.6924C72.4437 89.6924 71.8441 89.6924 71.2616 89.6924C71.1245 89.7267 70.9703 89.5725 70.9703 89.4183C70.9532 85.3065 70.9189 81.1946 70.9018 77.0828C70.9018 76.9286 71.0046 76.7915 71.193 76.7915C71.7927 76.7744 72.4095 76.7744 73.0262 76.7915C73.4031 76.7915 73.4031 77.3741 73.0262 77.3569C72.5123 77.3569 71.9983 77.3569 71.4672 77.3569C71.4843 79.2073 71.5014 81.0747 71.5186 82.925C71.964 82.9079 72.4266 82.925 72.872 82.925C73.249 82.925 73.249 83.5075 72.872 83.5075C72.4266 83.4904 71.964 83.4904 71.5186 83.4904C71.5186 85.375 71.5357 87.2425 71.5528 89.1271C72.0497 89.1099 72.5294 89.1099 73.0262 89.1271Z" fill="#008080"/>
<path d="M80.4866 77.0828C80.5037 81.1946 80.538 85.3065 80.5551 89.4183C80.5551 89.7781 79.9897 89.7781 79.9726 89.4183C79.9726 87.4481 79.9555 85.4778 79.9383 83.5247C79.3044 83.5075 78.6534 83.5075 78.0195 83.5075C78.0195 85.4778 78.0366 87.4481 78.0537 89.4183C78.0537 89.7781 77.4712 89.7781 77.4712 89.4183C77.4541 85.3065 77.4198 81.1946 77.4027 77.0828C77.4027 76.7059 77.9681 76.7059 77.9681 77.0828C77.9852 79.0359 78.0023 80.9719 78.0195 82.925C78.6534 82.925 79.3044 82.925 79.9383 82.9422C79.9212 80.989 79.9212 79.0359 79.9041 77.0828C79.9041 76.7059 80.4694 76.7059 80.4866 77.0828Z" fill="#008080"/>
<path d="M87.4878 76.7915C87.8476 76.7915 87.8476 77.3741 87.4878 77.3569C87.1451 77.3569 86.7854 77.3569 86.4427 77.3569C86.477 81.366 86.4941 85.3921 86.5284 89.4183C86.5284 89.7781 85.9459 89.7781 85.9459 89.4183C85.9116 85.3921 85.8945 81.366 85.8773 77.3569C85.5004 77.3569 85.1235 77.3569 84.7637 77.3569C84.3868 77.3741 84.3868 76.7915 84.7637 76.7915C85.6717 76.7744 86.5798 76.7744 87.4878 76.7915Z" fill="#008080"/>
<path d="M94.2762 77.0828C94.2933 76.7059 94.8587 76.7059 94.8587 77.0828C94.8416 81.1946 94.8073 85.3065 94.7902 89.4183C94.773 89.7781 94.2077 89.7781 94.2077 89.4183C94.2248 86.7456 94.2419 84.0729 94.2591 81.4174C93.6766 83.3362 93.0769 85.2551 92.443 87.1568C92.443 87.1739 92.443 87.1739 92.443 87.1739C92.443 87.9278 92.4259 88.6645 92.4259 89.4183C92.4259 89.7781 91.8434 89.7781 91.8434 89.4183C91.8776 85.3065 91.9119 81.1946 91.929 77.0828C91.929 76.7059 92.5115 76.7059 92.5115 77.0828C92.4944 79.8069 92.4773 82.531 92.4601 85.2551C93.0769 83.2848 93.6937 81.3146 94.2762 79.3272C94.2762 78.5733 94.2762 77.8366 94.2762 77.0828Z" fill="#008080"/>
<path d="M101.474 77.0143C101.988 77.3055 102.177 77.9052 102.108 78.4705C101.988 79.6184 100.857 79.9097 99.8809 79.8412C99.898 83.0278 99.9151 86.2145 99.9323 89.4183C99.9323 89.7781 99.3669 89.7781 99.3497 89.4183C99.3326 85.3065 99.2983 81.1946 99.2812 77.0828C99.2812 76.9457 99.384 76.7915 99.6067 76.7915C100.206 76.7573 100.909 76.723 101.474 77.0143ZM101.543 78.402C101.577 77.9737 101.44 77.5968 101.029 77.4597C100.669 77.3398 100.258 77.3398 99.8637 77.3569C99.8637 77.9908 99.8637 78.6247 99.8637 79.2758C100.549 79.3272 101.457 79.2073 101.543 78.402Z" fill="#008080"/>
</svg>
