<svg width="115" height="115" viewBox="0 0 115 115" fill="none" xmlns="http://www.w3.org/2000/svg">
<path fill-rule="evenodd" clip-rule="evenodd" d="M22.363 26.0724C22.7445 26.0661 23.276 26.1099 23.5512 26.1662C23.8264 26.2162 24.2642 26.3475 24.5206 26.4539C24.8645 26.5977 25.0834 26.7478 25.3398 26.998C25.5837 27.2419 25.7213 27.442 25.7964 27.6609C25.8589 27.861 25.9089 28.2425 25.9215 28.724C25.9402 29.2494 25.9215 29.5808 25.8527 29.8185C25.8026 30.0061 25.6901 30.2875 25.5963 30.4439C25.5087 30.6002 25.3586 30.8129 25.2648 30.9129C25.1772 31.013 24.8833 31.2194 24.6081 31.3632C24.3392 31.5008 23.8577 31.7009 23.5512 31.7947C23.0947 31.9386 22.8695 31.9698 22.363 31.9761C21.8189 31.9761 21.7 31.9573 21.4561 31.826C21.2998 31.7447 20.9933 31.4883 20.7682 31.2631C20.518 31.0067 20.2866 30.694 20.1616 30.4439C20.0553 30.2187 19.9302 29.9248 19.8864 29.7872C19.8426 29.6496 19.8051 29.2244 19.7988 28.1549L20.1178 27.5045C20.3617 27.0042 20.518 26.7853 20.7432 26.5789C20.912 26.4288 21.1872 26.2537 21.3623 26.1912C21.6 26.1036 21.8439 26.0724 22.363 26.0724ZM22.832 35.3907C23.4136 35.3845 23.7764 35.4095 23.989 35.4721C24.1641 35.5283 24.4268 35.6722 24.5769 35.8035C24.727 35.9348 24.9021 36.1412 24.9583 36.2601C25.0209 36.3789 25.1022 36.6478 25.1335 36.8542C25.171 37.0606 25.2335 38.2551 25.2773 39.5121C25.3336 41.2507 25.3336 42.1075 25.2773 43.1081C25.2398 43.8273 25.1772 44.8592 25.146 45.3908C25.1147 45.9224 25.0459 47.317 24.9896 48.4865C24.9396 49.656 24.8708 51.6948 24.8333 53.0206C24.7957 54.3465 24.7707 57.2545 24.7707 59.4935C24.7707 61.7261 24.7957 64.8218 24.8333 66.3728C24.8645 67.9175 24.9271 71.5636 24.9646 74.4717C25.0084 77.3797 25.0396 80.9132 25.0459 82.3204C25.0522 84.0777 25.0271 85.1034 24.9709 85.5724C24.9271 85.9476 24.8583 86.4417 24.8208 86.6669C24.7832 86.892 24.7207 87.1422 24.6769 87.2297C24.6331 87.3173 24.5143 87.4611 24.4017 87.5549C24.2954 87.655 24.089 87.7613 23.9452 87.7988C23.7951 87.8363 23.4637 87.8551 23.2072 87.8363C22.9196 87.8238 22.6194 87.755 22.4255 87.6737C22.2566 87.5987 22.019 87.4674 21.9127 87.3798C21.8001 87.2985 21.6375 87.1109 21.5499 86.9608C21.4624 86.8169 21.3498 86.5418 21.2935 86.3542C21.1997 86.054 21.1872 85.4911 21.1685 82.0077C21.1497 79.8063 21.1309 77.8926 21.1122 77.755C21.0934 77.6174 21.0434 77.4548 21.0059 77.386C20.9246 77.2734 20.9183 77.2734 20.7057 77.3797C20.5868 77.4423 20.2616 77.7237 19.9927 77.9989C19.7238 78.2803 19.3361 78.7056 19.1422 78.9432C18.9421 79.1809 18.6106 79.6499 18.3917 79.9751C18.1791 80.3003 17.7726 81.0508 17.4849 81.6324C17.1972 82.2141 16.7407 83.2459 16.4655 83.9151C16.1903 84.5843 15.8776 85.316 15.7776 85.5411C15.6775 85.7663 15.5774 86.0227 15.5587 86.1165C15.5337 86.2166 15.4023 86.523 15.2647 86.8044C15.1334 87.0921 14.9208 87.4298 14.7957 87.5549C14.6769 87.6862 14.483 87.8426 14.3767 87.8989C14.2203 87.9802 14.0327 88.0052 13.6387 87.9989C13.3448 87.9927 12.9695 87.9552 12.7944 87.9176C12.6256 87.8801 12.3441 87.7988 12.169 87.7488C12.0002 87.6925 11.7625 87.5862 11.6562 87.5049C11.5436 87.4236 11.406 87.2735 11.356 87.1672C11.306 87.0609 11.2622 86.8482 11.2622 86.6794C11.2622 86.5168 11.3185 86.1165 11.3873 85.7913C11.4623 85.4661 11.5499 85.0533 11.5812 84.8845C11.6187 84.7094 11.675 84.4592 11.7062 84.3216C11.7375 84.184 11.7875 83.9714 11.8188 83.8526C11.8501 83.7337 11.9439 83.3648 12.0314 83.0396C12.1253 82.7144 12.3066 82.1202 12.4442 81.7262C12.5755 81.3322 12.7757 80.7944 12.8757 80.538C12.9758 80.2816 13.1822 79.8188 13.3323 79.5061C13.4824 79.1934 13.77 78.6493 13.9702 78.2866C14.1765 77.9238 14.5705 77.3109 14.852 76.9232C15.1271 76.5292 15.4023 76.1477 15.4524 76.0789C15.5024 76.0039 15.74 75.7224 15.9839 75.4473C16.2216 75.1784 16.7719 74.6405 17.2035 74.2528C17.635 73.865 18.3792 73.2209 18.8608 72.8144C19.3423 72.4079 19.7926 72.0201 19.8676 71.9451C19.9427 71.8763 20.1741 71.6449 20.3867 71.4385C20.6556 71.1758 20.8057 70.9694 20.887 70.7506C20.9933 70.4691 21.0121 70.0626 21.0746 66.9356C21.1122 65.0094 21.1747 61.9262 21.206 60.0876C21.2373 58.2489 21.2873 56.1163 21.3623 53.9712L19.705 53.94C18.4668 53.9212 17.9289 53.8837 17.5787 53.8086C17.3223 53.7461 16.8407 53.571 16.5155 53.4146C16.0277 53.177 15.8338 53.0394 15.4336 52.6329C15.1522 52.3452 14.7394 51.8199 14.4267 51.3446C14.139 50.9068 13.7638 50.2689 13.5887 49.9249C13.4198 49.581 13.1759 49.0306 13.0571 48.7054C12.932 48.3802 12.7882 47.9424 12.7319 47.736C12.6819 47.5297 12.5943 47.1607 12.5443 46.923C12.5005 46.6791 12.4317 46.1475 12.3942 45.7348C12.3504 45.2282 12.3441 44.7091 12.3879 44.14C12.4192 43.6772 12.4817 43.1144 12.5193 42.8892C12.5568 42.6641 12.6256 42.3014 12.6819 42.0762C12.7319 41.8511 12.8632 41.4321 12.9633 41.1381C13.0696 40.8442 13.2259 40.4627 13.3072 40.2938C13.3948 40.1187 13.6199 39.7435 13.8076 39.4496C14.0139 39.1369 14.4142 38.6616 14.7894 38.2863C15.1334 37.9424 15.6337 37.5171 15.8901 37.3545C16.1465 37.1856 16.6656 36.9042 17.0471 36.7228C17.4286 36.5415 18.029 36.2976 18.3917 36.1788C18.7544 36.0599 19.3173 35.8911 19.6425 35.8035C19.9677 35.716 20.4618 35.6159 20.7369 35.5721C21.0121 35.5346 21.4061 35.4783 21.6125 35.4533C21.8189 35.422 22.3692 35.397 22.832 35.3907ZM18.7669 41.2945C18.4417 41.5071 17.9477 41.8823 17.6788 42.1137C17.4036 42.3514 16.9908 42.7829 16.7532 43.0769C16.5155 43.3708 16.2278 43.7898 16.1153 44.0149C16.0027 44.2401 15.8714 44.5778 15.8276 44.7654C15.7838 44.953 15.7463 45.2657 15.7463 45.4534C15.7525 45.641 15.7838 45.9224 15.8213 46.0787C15.8651 46.2351 15.9527 46.5165 16.0277 46.7041C16.1028 46.8918 16.2654 47.2295 16.3904 47.4546C16.5218 47.6798 16.7657 48.0237 16.9283 48.2176C17.0971 48.4177 17.4286 48.7304 17.6725 48.9243C17.9164 49.1119 18.3354 49.3808 18.6106 49.5184C18.8858 49.6497 19.3235 49.8311 19.58 49.9187C19.8364 50 20.2304 50.1 20.4555 50.1376C20.6806 50.1751 20.9371 50.2063 21.0371 50.2063H21.206C21.206 41.0693 21.1872 40.0124 21.1309 40.0124C21.0872 40.0187 20.6681 40.2188 20.2053 40.4564C19.7426 40.7003 19.0921 41.0756 18.7669 41.2945Z" fill="#008080"/>
<path d="M35.7327 40.3559C36.2163 40.3559 36.2163 41.1388 35.7327 41.1158C35.2721 41.1158 34.7885 41.1158 34.3279 41.1158C34.374 46.5046 34.397 51.9164 34.4431 57.3283C34.4431 57.8119 33.6601 57.8119 33.6601 57.3283C33.614 51.9164 33.591 46.5046 33.568 41.1158C33.0614 41.1158 32.5547 41.1158 32.0711 41.1158C31.5645 41.1388 31.5645 40.3559 32.0711 40.3559C33.2916 40.3328 34.5122 40.3328 35.7327 40.3559Z" fill="#008080"/>
<path d="M45.1622 55.2787C45.2774 56.1077 45.001 56.9598 44.2641 57.4204C43.5272 57.881 42.583 57.8579 41.7539 57.6967C41.5697 57.6507 41.4545 57.5355 41.4545 57.3283C41.4315 51.8013 41.3855 46.2743 41.3624 40.7473C41.3624 40.5631 41.5006 40.3559 41.8 40.3559C42.606 40.3098 43.5502 40.2637 44.2871 40.6552C45.001 41.0467 45.2543 41.8527 45.1622 42.6127C45.001 44.1556 43.4811 44.5471 42.1454 44.455C42.1684 47.4949 42.1915 50.5577 42.2145 53.5975C43.4811 53.5054 44.9319 53.8048 45.1622 55.2787ZM43.7114 41.254C43.2278 41.0928 42.6751 41.0928 42.1454 41.1158C42.1454 41.9679 42.1454 42.82 42.1454 43.6951C43.0666 43.7642 44.2871 43.6029 44.4023 42.5206C44.4483 41.9449 44.2641 41.4382 43.7114 41.254ZM43.8265 56.7756C44.3562 56.4532 44.4944 55.8544 44.3792 55.3017C44.1489 54.3575 43.0435 54.2884 42.2145 54.3575C42.2145 55.2326 42.2375 56.1077 42.2375 57.0058C42.7672 57.0749 43.3659 57.0519 43.8265 56.7756Z" fill="#008080"/>
<path d="M54.8767 42.9812C55.084 45.1459 55.0149 47.3797 54.9918 49.5675C54.9918 50.5807 55.0149 51.6171 54.9918 52.6303C54.9688 53.7357 54.9918 54.9332 54.6925 55.9926V56.0156C54.4391 56.7756 53.9555 57.5355 53.1265 57.6737C52.5508 57.7888 51.9981 57.5585 51.6296 57.098C50.8696 56.1538 50.8466 54.749 50.8006 53.5975C50.7315 51.7783 50.6854 49.959 50.6854 48.1397C50.6854 47.1724 50.7084 46.2283 50.7545 45.261C50.7775 44.432 50.7775 43.5799 50.8696 42.7509C51.0308 41.5534 51.6296 40.2177 53.0574 40.3559C54.347 40.494 54.7846 41.8758 54.8767 42.9812ZM52.712 56.9137C53.3798 57.0289 53.7713 56.338 53.9325 55.8083C54.2549 54.749 54.2089 53.5285 54.2089 52.4231C54.2319 51.4558 54.2088 50.4656 54.2319 49.4754C54.2319 47.4718 54.2549 45.4683 54.1398 43.4648C54.0937 42.7048 54.0016 41.3461 53.1035 41.1388C51.8829 40.8855 51.6526 42.4976 51.6066 43.3266C51.3763 46.6658 51.4454 50.0511 51.5835 53.4133C51.6066 54.3345 51.6296 55.3017 51.975 56.1768C52.1132 56.4992 52.3205 56.8677 52.712 56.9137Z" fill="#008080"/>
<path d="M63.7619 39.1123C64.2686 39.0893 64.2686 39.8722 63.7619 39.8953C63.3474 39.8953 62.9099 39.8953 62.4953 39.8953C61.9887 39.8722 61.9887 39.1123 62.4953 39.1123C62.9099 39.1353 63.3474 39.1353 63.7619 39.1123ZM64.2456 40.7473C64.2686 40.2407 65.0285 40.2407 65.0285 40.7473C65.0055 46.2743 64.9595 51.8013 64.9364 57.3283C64.9134 57.8119 64.1534 57.8119 64.1534 57.3283C64.1765 53.7357 64.1995 50.1432 64.2225 46.5737C63.4395 49.1529 62.6335 51.7322 61.7814 54.2884C61.7814 54.3115 61.7814 54.3114 61.7814 54.3114C61.7814 55.3247 61.7584 56.315 61.7584 57.3283C61.7584 57.8119 60.9754 57.8119 60.9754 57.3283C61.0215 51.8013 61.0675 46.2743 61.0906 40.7473C61.0906 40.2407 61.8736 40.2407 61.8736 40.7473C61.8505 44.409 61.8275 48.0706 61.8045 51.7322C62.6335 49.0839 63.4626 46.4355 64.2456 43.7641C64.2456 42.7509 64.2456 41.7606 64.2456 40.7473Z" fill="#008080"/>
<path d="M36.2624 68.5107C36.4696 70.6755 36.4006 72.9093 36.3775 75.097C36.3775 76.1103 36.4006 77.1466 36.3775 78.1599C36.3545 79.2653 36.3775 80.4628 36.0782 81.5222V81.5452C35.8248 82.3051 35.3412 83.0651 34.5122 83.2033C33.9365 83.3184 33.3838 83.0881 33.0153 82.6275C32.2553 81.6834 32.2323 80.2786 32.1862 79.1271C32.1172 77.3078 32.0711 75.4885 32.0711 73.6692C32.0711 72.702 32.0941 71.7578 32.1402 70.7906C32.1632 69.9616 32.1632 69.1095 32.2553 68.2805C32.4165 67.0829 33.0153 65.7473 34.4431 65.8854C35.7327 66.0236 36.1703 67.4054 36.2624 68.5107ZM34.0977 82.4433C34.7655 82.5585 35.157 81.8676 35.3182 81.3379C35.6406 80.2786 35.5945 79.058 35.5945 77.9527C35.6176 76.9854 35.5945 75.9952 35.6176 75.0049C35.6176 73.0014 35.6406 70.9979 35.5255 68.9944C35.4794 68.2344 35.3873 66.8757 34.4891 66.6684C33.2686 66.4151 33.0383 68.0271 32.9923 68.8562C32.762 72.1954 32.8311 75.5807 32.9692 78.9429C32.9923 79.8641 33.0153 80.8313 33.3607 81.7064C33.4989 82.0288 33.7062 82.3973 34.0977 82.4433Z" fill="#008080"/>
<path d="M45.3088 66.1848C45.9997 66.5763 46.253 67.3823 46.1609 68.1423C45.9997 69.6852 44.4798 70.0767 43.1671 69.9846C43.1902 74.268 43.2132 78.5514 43.2362 82.8578C43.2362 83.3414 42.4763 83.3414 42.4532 82.8578C42.4302 77.3309 42.3842 71.8039 42.3611 66.2769C42.3611 66.0927 42.4993 65.8854 42.7987 65.8854C43.6047 65.8394 44.5489 65.7933 45.3088 66.1848ZM45.401 68.0502C45.447 67.4744 45.2628 66.9678 44.7101 66.7836C44.2265 66.6224 43.6738 66.6224 43.1441 66.6454C43.1441 67.4975 43.1441 68.3495 43.1441 69.2246C44.0653 69.2937 45.2858 69.1325 45.401 68.0502Z" fill="#008080"/>
<path d="M54.7069 66.2769C54.7299 65.7703 55.4898 65.7703 55.4898 66.2769C55.4668 71.8039 55.4207 77.3309 55.3977 82.8578C55.3747 83.3414 54.6147 83.3414 54.6147 82.8578C54.6378 79.2653 54.6608 75.6728 54.6838 72.1033C53.9008 74.6825 53.0948 77.2618 52.2427 79.818C52.2427 79.841 52.2427 79.841 52.2427 79.841C52.2427 80.8543 52.2197 81.8446 52.2197 82.8578C52.2197 83.3414 51.4367 83.3414 51.4367 82.8578C51.4828 77.3309 51.5288 71.8039 51.5519 66.2769C51.5519 65.7703 52.3349 65.7703 52.3349 66.2769C52.3118 69.9385 52.2888 73.6002 52.2658 77.2618C53.0948 74.6134 53.9239 71.9651 54.7069 69.2937C54.7069 68.2805 54.7069 67.2902 54.7069 66.2769Z" fill="#008080"/>
<path d="M63.8402 82.4663C64.3468 82.4663 64.3468 83.2493 63.8402 83.2263C63.0572 83.2263 62.2512 83.2263 61.4682 83.2263C61.284 83.2724 61.0767 83.0651 61.0767 82.8578C61.0537 77.3309 61.0076 71.8039 60.9846 66.2769C60.9846 66.0697 61.1228 65.8854 61.3761 65.8854C62.1821 65.8624 63.0112 65.8624 63.8402 65.8854C64.3468 65.8854 64.3468 66.6684 63.8402 66.6454C63.1493 66.6454 62.4585 66.6454 61.7446 66.6454C61.7676 69.1325 61.7906 71.6427 61.8136 74.1298C62.4124 74.1068 63.0342 74.1298 63.6329 74.1298C64.1396 74.1298 64.1396 74.9128 63.6329 74.9128C63.0342 74.8898 62.4124 74.8898 61.8136 74.8898C61.8136 77.423 61.8367 79.9332 61.8597 82.4663C62.5276 82.4433 63.1724 82.4433 63.8402 82.4663Z" fill="#008080"/>
<path d="M73.8681 66.2769C73.8911 71.8039 73.9372 77.3309 73.9602 82.8578C73.9602 83.3414 73.2002 83.3414 73.1772 82.8578C73.1772 80.2095 73.1542 77.5612 73.1312 74.9358C72.2791 74.9128 71.404 74.9128 70.5519 74.9128C70.5519 77.5612 70.5749 80.2095 70.598 82.8578C70.598 83.3414 69.815 83.3414 69.815 82.8578C69.792 77.3309 69.7459 71.8039 69.7229 66.2769C69.7229 65.7703 70.4828 65.7703 70.4828 66.2769C70.5059 68.9022 70.5289 71.5045 70.5519 74.1298C71.404 74.1298 72.2791 74.1298 73.1312 74.1529C73.1081 71.5275 73.1081 68.9022 73.0851 66.2769C73.0851 65.7703 73.8451 65.7703 73.8681 66.2769Z" fill="#008080"/>
<path d="M83.2789 65.8854C83.7625 65.8854 83.7625 66.6684 83.2789 66.6454C82.8183 66.6454 82.3347 66.6454 81.8741 66.6454C81.9202 72.0342 81.9432 77.446 81.9893 82.8578C81.9893 83.3414 81.2063 83.3414 81.2063 82.8578C81.1602 77.446 81.1372 72.0342 81.1142 66.6454C80.6075 66.6454 80.1009 66.6454 79.6173 66.6454C79.1106 66.6684 79.1106 65.8854 79.6173 65.8854C80.8378 65.8624 82.0583 65.8624 83.2789 65.8854Z" fill="#008080"/>
<path d="M92.4036 66.2769C92.4266 65.7703 93.1866 65.7703 93.1866 66.2769C93.1635 71.8039 93.1175 77.3309 93.0945 82.8578C93.0714 83.3414 92.3115 83.3414 92.3115 82.8578C92.3345 79.2653 92.3575 75.6728 92.3806 72.1033C91.5976 74.6825 90.7916 77.2618 89.9395 79.818C89.9395 79.841 89.9395 79.841 89.9395 79.841C89.9395 80.8543 89.9165 81.8446 89.9165 82.8578C89.9165 83.3414 89.1335 83.3414 89.1335 82.8578C89.1795 77.3309 89.2256 71.8039 89.2486 66.2769C89.2486 65.7703 90.0316 65.7703 90.0316 66.2769C90.0086 69.9385 89.9855 73.6002 89.9625 77.2618C90.7916 74.6134 91.6206 71.9651 92.4036 69.2937C92.4036 68.2805 92.4036 67.2902 92.4036 66.2769Z" fill="#008080"/>
<path d="M102.079 66.1848C102.77 66.5763 103.023 67.3823 102.931 68.1423C102.77 69.6852 101.25 70.0767 99.9371 69.9846C99.9602 74.268 99.9832 78.5514 100.006 82.8578C100.006 83.3414 99.2463 83.3414 99.2232 82.8578C99.2002 77.3309 99.1542 71.8039 99.1311 66.2769C99.1311 66.0927 99.2693 65.8854 99.5687 65.8854C100.375 65.8394 101.319 65.7933 102.079 66.1848ZM102.171 68.0502C102.217 67.4744 102.033 66.9678 101.48 66.7836C100.996 66.6224 100.444 66.6224 99.9141 66.6454C99.9141 67.4975 99.9141 68.3495 99.9141 69.2246C100.835 69.2937 102.056 69.1325 102.171 68.0502Z" fill="#008080"/>
</svg>
